<svg width="26" height="39" viewBox="0 0 26 39" fill="none" xmlns="http://www.w3.org/2000/svg">
<path d="M3.77365 16.8307C5.34983 19.3301 6.92621 21.8294 8.502 24.3292C8.89475 24.9518 9.28192 25.5683 9.62579 26.2164C9.96908 26.8628 10.3126 27.5089 10.6559 28.1556C11.3478 29.4586 12.04 30.7616 12.7319 32.0648C13.0752 32.7112 13.4185 33.3578 13.762 34.0042C13.936 34.3322 14.1173 34.6579 14.2849 34.9889C14.5633 35.5388 14.7511 36.1793 14.5377 36.7908C14.5179 36.8477 14.4946 36.904 14.4732 36.9605C14.4212 37.0978 14.3687 37.2353 14.3167 37.3726C14.2746 37.4829 14.2294 37.5892 14.1803 37.6978C14.0093 38.077 13.7446 38.337 13.3428 38.4984C12.9256 38.6663 12.5092 38.6343 12.088 38.5158C11.9701 38.4828 11.8524 38.4498 11.7348 38.4167C11.4915 38.3484 11.2407 38.2833 11.0247 38.1527C10.6339 37.9164 10.2878 37.5951 10.0787 37.2017C9.73537 36.5555 9.39208 35.9089 9.04878 35.2625C8.35683 33.9595 7.66468 32.6567 6.97253 31.3533C6.20601 29.9101 5.38795 28.4821 4.73234 26.9898C3.56729 24.3375 2.40224 21.6851 1.23738 19.0334C1.09008 18.6977 0.942576 18.3625 0.795272 18.027C0.65237 17.701 0.767036 17.1326 0.965243 16.8442C1.16131 16.5584 1.41311 16.347 1.74598 16.2131C2.49004 15.9139 3.35805 16.1723 3.77365 16.831L3.77365 16.8307Z" fill="white"/>
<path d="M12.0472 10.2488C15.3898 12.9835 18.7323 15.7179 22.0749 18.4525C22.4971 18.7982 22.9197 19.1436 23.342 19.4891C23.5438 19.6541 23.7525 19.8135 23.9482 19.9851C24.3557 20.3425 24.582 20.8083 24.7923 21.2824C24.9915 21.7323 25.0403 22.1906 24.8995 22.6722C24.7948 23.0304 24.5976 23.3566 24.3184 23.62C23.7275 24.1776 22.8978 24.3432 22.1077 24.1768C21.8469 24.122 21.5093 23.9407 21.2393 23.8316C20.9294 23.7066 20.684 23.5356 20.4344 23.3002C20.0402 22.9285 19.6592 22.5431 19.272 22.1648C17.7388 20.6673 16.2056 19.1699 14.6724 17.6721C12.954 15.9935 11.2352 14.3151 9.51678 12.6364C9.19754 12.3245 8.99888 11.8894 9.00107 11.4506C9.00313 11.0385 9.19965 10.5455 9.52863 10.2601C9.85742 9.9746 10.316 9.74429 10.7907 9.76214C11.2652 9.77998 11.6768 9.94523 12.0476 10.2483L12.0472 10.2488Z" fill="white"/>
<path d="M11.3371 2.74984C11.5946 2.60699 11.8474 2.4534 12.1367 2.37246C12.4566 2.28262 12.8013 2.29797 13.132 2.29057C13.5412 2.28135 13.9503 2.26445 14.3591 2.24045C15.1681 2.19265 15.9749 2.11512 16.7781 2.01095L16.2339 2.08232C17.2463 1.9487 18.2521 1.77021 19.2473 1.54559C19.7476 1.43282 20.2406 1.28777 20.7462 1.20198C21.2516 1.11619 21.7601 1.01706 22.2635 0.907736C22.8494 0.780684 23.4678 0.824864 23.993 1.11332C24.4576 1.36849 24.8993 1.86979 25.0187 2.37444C25.147 2.91627 25.1153 3.52512 24.784 4.00798C24.4527 4.49102 24.0142 4.81395 23.4369 4.98786C23.0907 5.09225 22.7429 5.19153 22.3934 5.28498C22.2242 5.33013 22.0551 5.37382 21.8854 5.4166C21.5255 5.50663 21.1571 5.54012 20.7891 5.58785C20.0762 5.681 19.3608 5.75281 18.6431 5.80054C17.1989 5.89677 15.749 5.89867 14.3061 5.80854C13.9082 5.78377 13.5112 5.75169 13.1145 5.71267C12.6456 5.66669 12.1424 5.65592 11.7262 5.43557C11.483 5.30695 11.2501 5.10089 11.0279 4.93201C10.6757 4.66409 10.5703 4.16631 10.6291 3.76778C10.6918 3.34168 10.9353 2.97312 11.3365 2.75057L11.3371 2.74984Z" fill="white"/>
</svg>
