<svg width="400" height="46" viewBox="0 0 400 46" fill="none" xmlns="http://www.w3.org/2000/svg">
<path d="M381.901 45.3008C382.343 45.6316 382.97 45.5412 383.301 45.099L388.692 37.8922C389.023 37.4499 388.932 36.8233 388.49 36.4924C388.048 36.1616 387.421 36.252 387.09 36.6942L382.298 43.1003L375.892 38.3084C375.45 37.9775 374.823 38.0679 374.493 38.5101C374.162 38.9524 374.252 39.5791 374.694 39.9099L381.901 45.3008ZM0.5 20C0.556249 20.9984 0.556714 20.9984 0.557719 20.9983C0.558775 20.9983 0.560318 20.9982 0.562424 20.9981C0.566636 20.9978 0.572994 20.9975 0.581478 20.997C0.598446 20.9961 0.623921 20.9946 0.657741 20.9928C0.725381 20.9891 0.826405 20.9835 0.959537 20.9764C1.2258 20.962 1.62049 20.9412 2.13341 20.915C3.15924 20.8626 4.65792 20.7889 6.5478 20.7041C10.3277 20.5343 15.6718 20.3197 21.9272 20.1402C34.4416 19.7811 50.588 19.563 65.1491 20.1243C72.4304 20.4049 79.3003 20.8799 85.114 21.6266C90.9529 22.3766 95.6368 23.3904 98.6013 24.7104C100.092 25.3744 101.025 26.0631 101.492 26.7243C101.905 27.3094 101.99 27.9157 101.651 28.6913C101.277 29.5467 100.373 30.6166 98.6907 31.8924C97.0256 33.1548 94.6821 34.5565 91.5566 36.1038L92.0003 37L92.4439 37.8962C95.6309 36.3185 98.0961 34.853 99.899 33.4861C101.684 32.1324 102.908 30.8108 103.484 29.4923C104.095 28.094 103.954 26.7443 103.126 25.5711C102.351 24.474 101.029 23.6022 99.4148 22.8834C96.1683 21.4377 91.2389 20.3969 85.3688 19.6429C79.4735 18.8857 72.5386 18.4076 65.2262 18.1257C50.5997 17.562 34.4023 17.7814 21.8698 18.141C15.6017 18.3209 10.2466 18.536 6.45808 18.7061C4.56377 18.7911 3.06098 18.865 2.03139 18.9176C1.51659 18.9439 1.12009 18.9648 0.852079 18.9793C0.718075 18.9865 0.616195 18.992 0.547715 18.9958C0.513476 18.9977 0.487586 18.9991 0.470205 19.0001C0.461515 19.0006 0.454952 19.001 0.450536 19.0012C0.448329 19.0013 0.446632 19.0014 0.445526 19.0015C0.444369 19.0015 0.443751 19.0016 0.5 20ZM92.0003 37L91.5566 36.1038C89.9584 36.895 88.67 37.6121 87.6805 38.2598C86.7086 38.8961 85.956 39.5095 85.4977 40.1107C85.0407 40.7103 84.7003 41.5674 85.2062 42.4059C85.6161 43.0854 86.421 43.4158 87.1488 43.6083C88.6969 44.0179 91.1809 44.1148 94.3164 43.9967C97.4875 43.8773 101.435 43.5319 105.976 43.0011C124.133 40.8783 152.013 35.7611 178.338 30.0397C204.645 24.322 229.495 17.9804 241.558 13.3957C244.558 12.2557 246.864 11.1894 248.201 10.2259C248.83 9.77252 249.457 9.19646 249.656 8.47834C249.771 8.0653 249.737 7.62782 249.522 7.22728C249.322 6.85563 249.007 6.59138 248.69 6.40021C248.069 6.02649 247.174 5.77555 246.092 5.5946C244.984 5.40927 243.577 5.28185 241.861 5.21166C238.428 5.07121 233.677 5.15705 227.445 5.50154L227.5 6.50001L227.555 7.49849C233.761 7.15547 238.439 7.07334 241.78 7.20999C243.451 7.27835 244.767 7.40075 245.762 7.5672C246.783 7.73802 247.371 7.94082 247.658 8.11349C247.794 8.19551 247.789 8.22762 247.76 8.17432C247.716 8.09214 247.715 7.99501 247.729 7.94316C247.735 7.92183 247.724 7.97923 247.602 8.11502C247.484 8.24557 247.3 8.4094 247.031 8.60348C245.927 9.39948 243.84 10.3888 240.848 11.5262C228.942 16.0509 204.23 22.3656 177.913 28.0853C151.612 33.8014 123.805 38.903 105.743 41.0146C101.229 41.5423 97.3391 41.8815 94.2412 41.9982C91.1076 42.1162 88.8915 42.0006 87.6603 41.6749C86.9984 41.4997 86.8939 41.3317 86.9187 41.3728C87.0394 41.5729 86.838 41.6514 87.0883 41.3232C87.3372 40.9966 87.8602 40.5327 88.776 39.9331C89.6743 39.345 90.8859 38.6675 92.4439 37.8962L92.0003 37ZM227.5 6.50001L227.445 5.50154C202.541 6.87811 182.435 9.19425 167.373 11.9697C159.843 13.3573 153.562 14.8621 148.565 16.4266C143.585 17.9861 139.822 19.623 137.373 21.2998C134.997 22.9258 133.479 24.8694 133.982 27.0474C134.223 28.0902 134.904 29.0063 135.86 29.8065C136.817 30.6085 138.112 31.3467 139.709 32.029C146.059 34.7423 157.928 36.8724 175.436 37.998L175.5 37L175.564 36.0021C158.072 34.8776 146.504 32.7577 140.494 30.1898C139.001 29.5518 137.898 28.9052 137.144 28.2731C136.387 27.6392 136.04 27.072 135.93 26.5972C135.732 25.74 136.221 24.5117 138.502 22.9502C140.709 21.4396 144.251 19.8733 149.163 18.3352C154.06 16.8019 160.258 15.3146 167.736 13.9366C182.69 11.1808 202.709 8.87191 227.555 7.49849L227.5 6.50001ZM175.5 37L175.436 37.998C210.523 40.2536 261.341 37.2462 305.367 32.0556C327.385 29.4597 347.729 26.3149 363.58 23.0023C371.503 21.3463 378.321 19.6449 383.67 17.9442C388.977 16.257 392.97 14.5318 395.131 12.7761L394.5 12L393.87 11.2239C392.03 12.7182 388.367 14.3524 383.064 16.0382C377.804 17.7106 371.059 19.3959 363.17 21.0446C347.396 24.3413 327.115 27.4778 305.133 30.0694C261.159 35.2538 210.477 38.2465 175.564 36.0021L175.5 37ZM394.5 12L395.131 12.7761C399.238 9.43896 400.484 5.88381 399.135 3.32303C397.789 0.768609 394.347 0.123847 391.076 1.65705C387.74 3.22042 384.346 7.05025 382.292 13.8922C380.237 20.7398 379.497 30.6776 381.51 44.6427L382.5 44.5L383.49 44.3573C381.503 30.5724 382.263 20.9477 384.208 14.4672C386.154 7.98103 389.26 4.7171 391.925 3.46797C394.654 2.18868 396.711 3.01266 397.365 4.25512C398.016 5.49121 397.762 8.06106 393.87 11.2239L394.5 12Z" fill="white"/>
</svg>
