<svg xmlns="http://www.w3.org/2000/svg" xmlns:xlink="http://www.w3.org/1999/xlink" width="1080" zoomAndPan="magnify" viewBox="0 0 810 809.999993" height="1080" preserveAspectRatio="xMidYMid meet" version="1.0"><defs><clipPath id="305de6c4a1"><path d="M 5 101 L 793 101 L 793 735 L 5 735 Z M 5 101 " clip-rule="nonzero"/></clipPath><clipPath id="f741a3561c"><path d="M 85.351562 24.820312 L 869.308594 228.570312 L 724.609375 785.324219 L -59.347656 581.574219 Z M 85.351562 24.820312 " clip-rule="nonzero"/></clipPath><clipPath id="23fd11a829"><path d="M 869.308594 228.570312 L 85.351562 24.820312 L -59.347656 581.574219 L 724.609375 785.324219 Z M 869.308594 228.570312 " clip-rule="nonzero"/></clipPath></defs><g clip-path="url(#305de6c4a1)"><g clip-path="url(#f741a3561c)"><g clip-path="url(#23fd11a829)"><path fill="#fb8f34" d="M 585.976562 718.574219 C 618.683594 648.574219 707.972656 546.097656 776.804688 510.648438 C 798.96875 499.234375 802.5 459.363281 751.386719 468.683594 C 710.777344 476.085938 557.503906 472.777344 526.007812 453.777344 C 511.613281 376.542969 526.460938 314.507812 545.933594 239.472656 C 557.289062 195.703125 562.871094 193.632812 564.375 149.488281 L 522.503906 146.613281 C 463.402344 203.90625 397.125 275.972656 316.183594 301.402344 C 285.953125 310.894531 270.664062 288.507812 248.933594 266.847656 C 200.207031 218.277344 205.554688 207.277344 173.835938 145.132812 C 165.058594 127.9375 143.675781 82.84375 117.367188 109.40625 C 107.992188 118.875 93.945312 217.492188 87.878906 241.773438 C 66.421875 327.679688 52.527344 351.695312 10.296875 426.566406 C -2.695312 449.601562 14.511719 469.695312 44.617188 463.480469 C 106.816406 450.640625 120.8125 461.007812 182.769531 483.246094 C 271.734375 515.179688 396.089844 576.742188 446.9375 664.84375 C 369.902344 639.890625 171.734375 521.578125 102.636719 496.234375 C 90.289062 493.027344 77.675781 500.433594 74.464844 512.785156 C 71.253906 525.136719 78.664062 537.75 91.011719 540.960938 C 201.589844 582.066406 334.308594 682.925781 445.539062 712.300781 C 485.5625 722.871094 517.15625 703.75 497.75 662.753906 C 448.503906 558.730469 328.421875 490.199219 225.441406 449.878906 C 166.175781 426.675781 127.902344 409.207031 75.078125 412.417969 C 108.339844 351.539062 131.191406 262.921875 145.503906 190.472656 C 161.445312 225.632812 170.527344 253.976562 215.992188 299.253906 C 251.03125 334.152344 277.53125 361.863281 330.210938 345.429688 C 395.601562 325.03125 449.96875 280.257812 499.964844 232.925781 C 479.527344 311.886719 460.699219 408.535156 482.929688 471.722656 C 496.503906 510.316406 601.769531 519.902344 683.871094 518.648438 C 624.34375 572.375 565.839844 652.355469 541.90625 704.671875 C 538.066406 716.839844 544.820312 729.820312 556.992188 733.660156 C 569.160156 737.5 582.136719 730.746094 585.976562 718.574219 Z M 762.414062 413.511719 C 715.929688 413.816406 663.097656 416.804688 615.664062 418.550781 L 598.652344 420.019531 C 645.417969 445.09375 703.789062 440.566406 755.433594 443.515625 C 763.71875 445.441406 771.996094 440.289062 773.925781 432 C 775.855469 423.71875 770.699219 415.4375 762.414062 413.511719 Z M 47.210938 176.753906 C 39.929688 222.144531 42.527344 262.078125 27.382812 302.507812 C 15.871094 333.234375 19.816406 316.140625 15.699219 339.386719 C 62.191406 295.597656 62.886719 238.304688 77.863281 179.851562 C 78.71875 171.386719 72.550781 163.828125 64.085938 162.976562 C 55.621094 162.125 48.066406 168.292969 47.210938 176.753906 Z M 47.210938 176.753906 " fill-opacity="1" fill-rule="evenodd"/></g></g></g></svg>