<svg width="1000" height="1000" viewBox="0 0 1000 1000" fill="none" xmlns="http://www.w3.org/2000/svg">
<g clip-path="url(#clip0_167_2)">
<g clip-path="url(#clip1_167_2)">
<mask id="mask0_167_2" style="mask-type:luminance" maskUnits="userSpaceOnUse" x="0" y="0" width="1000" height="1000">
<path d="M650 0H350C156.7 0 0 156.7 0 350V650C0 843.3 156.7 1000 350 1000H650C843.3 1000 1000 843.3 1000 650V350C1000 156.7 843.3 0 650 0Z" fill="white"/>
</mask>
<g mask="url(#mask0_167_2)">
<path d="M1000 0H0V1000H1000V0Z" fill="black"/>
<g clip-path="url(#clip2_167_2)">
<g clip-path="url(#clip3_167_2)">
<path d="M493.785 743.79L287.018 624.958C284.508 623.458 282.835 620.791 282.835 617.791V434.125C282.835 430.959 286.348 428.959 289.025 430.459L529.082 568.458C532.428 570.459 536.61 567.958 536.61 564.125V474.625C536.61 471.125 534.77 467.791 531.591 465.958L242.854 299.958C240.344 298.458 236.998 298.458 234.489 299.958L196.682 321.791C194.173 323.291 192.5 325.958 192.5 328.958V670.125C192.5 673.125 194.173 675.79 196.682 677.29L493.283 847.96C495.792 849.46 499.138 849.46 501.647 847.96L750.735 704.625C754.085 702.625 754.085 697.96 750.735 695.96L673.116 651.29C669.938 649.458 666.258 649.458 663.079 651.29L502.316 743.79C499.807 745.29 496.461 745.29 493.952 743.79H493.785Z" fill="white"/>
<path d="M798.245 321.625L501.647 151.125C499.137 149.625 495.792 149.625 493.283 151.125L336.535 241.292C333.189 243.292 333.189 247.958 336.535 249.958L413.487 294.292C416.665 296.125 420.346 296.125 423.524 294.292L493.785 253.959C496.294 252.459 499.639 252.459 502.149 253.959L708.915 372.792C711.425 374.292 713.1 376.958 713.1 379.958V564.458C713.1 567.958 714.94 571.292 718.115 573.125L795.07 617.292C798.415 619.292 802.595 616.791 802.595 612.958V328.958C802.595 325.958 800.925 323.292 798.415 321.792L798.245 321.625Z" fill="white"/>
</g>
</g>
</g>
</g>
<g clip-path="url(#clip4_167_2)">
<mask id="mask1_167_2" style="mask-type:luminance" maskUnits="userSpaceOnUse" x="0" y="0" width="1000" height="1000">
<path d="M650 0H350C156.7 0 0 156.7 0 350V650C0 843.3 156.7 1000 350 1000H650C843.3 1000 1000 843.3 1000 650V350C1000 156.7 843.3 0 650 0Z" fill="white"/>
</mask>
<g mask="url(#mask1_167_2)">
<path d="M1000 0H0V1000H1000V0Z" fill="black"/>
<g clip-path="url(#clip5_167_2)">
<g clip-path="url(#clip6_167_2)">
<path d="M551.026 849.999C544.747 823.207 524.256 807.897 506.208 791.124C468.391 755.978 416.967 755.393 371.768 738.908C342.966 728.404 314.998 715.501 293.624 692.486C274.558 671.957 252.963 652.615 238.851 628.952C222.828 602.083 210.06 571.909 202.787 541.519C192.872 500.086 196.29 457.364 208.526 416.105C222.971 367.396 250.161 326.671 287.861 292.819C319.5 264.409 354.999 243.662 397.522 236.038C406.86 234.364 415.706 229.954 427.304 225.927C427.304 253.472 427.973 276.812 426.756 300.054C426.504 304.879 420.147 311.111 415.078 313.647C397.162 322.612 377.525 328.491 360.463 338.74C315.684 365.635 291.036 408.428 280.882 457.56C275.286 484.638 277.423 513.736 286.992 541.912C295.979 568.377 306.958 592.744 325.673 613.518C356.165 647.362 395.021 664.163 439.063 673.149C476.101 680.706 510.652 694.02 542.124 717.719C579.891 746.157 609.578 779.658 629.353 822.013C632.769 829.329 631.138 839 633.078 848.792C607.131 849.999 579.945 849.999 551.026 849.999Z" fill="#FEFEFE"/>
<path d="M663.899 672.43C698.932 633.748 721.905 590.874 726.931 539.202C728.189 526.269 732.374 513.64 733.992 500.718C738.371 465.744 727.557 432.284 718.153 399.924C710.056 372.062 696.8 355.814 681.025 325.25C703.44 319.351 719.978 304.691 741.37 299.738C744.461 299.022 750.58 301.856 751.949 304.675C770.787 343.445 793.183 380.959 796.99 425.353C799.412 453.589 804.651 481.916 803.669 510.028C802.45 544.948 795.187 578.984 782.265 612.457C767.717 650.141 747.031 683.263 722.638 714.513C713.047 726.8 700.873 737.128 689.377 747.813C687.449 749.605 681.717 750.213 679.882 748.726C668.009 739.105 656.589 728.904 645.289 718.598C630.967 705.538 631.499 699.803 647.269 687.559C652.92 683.172 658.278 678.408 663.899 672.43Z" fill="#FEFEFE"/>
<path d="M370.52 446.501C388.849 412.946 414.082 392.319 452.515 391.627C474.314 391.235 494.287 393.1 514.775 405.35C542.95 422.197 554.365 446.393 560.336 475.773C561.055 479.314 561.631 486.222 561.631 486.533C561.631 486.533 559.228 500.517 548.022 500.501H432.541V517.191H555.846C561.217 549.552 537.959 558.604 519.015 574.384C485.459 602.336 416.052 597.925 383.902 555.158C369.683 536.242 362.798 515.904 358.562 495.434C355.541 480.837 365.367 463.581 370.52 446.501Z" fill="#FEFEFE"/>
<path d="M702.077 405.419C707.551 422.622 714.918 438.546 716.193 454.944C720.192 506.372 717.211 557.205 692.864 604.477C677.808 633.707 654.7 656.535 632.394 679.867C629.747 682.636 620.08 682.431 616.385 679.795C602.782 670.092 591.361 657.036 577.13 648.591C563.89 640.733 564.97 636.867 575.93 628.486C623.587 592.045 646.49 543.187 644.962 483.481C644.236 455.134 635.892 428.246 619.446 404.939C611.866 394.198 615.476 387.546 622.911 380.214C633.445 369.825 644.89 360.198 654.305 348.881C663.737 337.543 671.144 345.795 674.634 351.653C684.677 368.511 692.493 386.695 702.077 405.419Z" fill="#FEFEFE"/>
<path d="M598.796 255.644C616.198 245.065 631.577 233.316 648.811 225.85C668.129 217.482 672.679 216.762 709.247 206.454C734.934 195.983 749.608 210.646 763.566 227.261C775.876 241.913 787.101 257.515 798.161 273.153C800.601 276.602 800.328 281.97 801.85 288.962C787.645 286.534 789.513 283.524 763.875 283C730.17 287.002 696.852 289.087 665.463 308.359C630.361 329.911 605.463 357.179 588.804 393.775C587.063 397.598 580.874 402.636 577.692 402.044C555.127 397.843 532.786 392.409 510.445 387.071C508.377 386.577 506.802 384.021 505.831 383.161C524.985 332.239 553.044 288.247 598.796 255.644Z" fill="#FEFEFE"/>
<path d="M493.84 202.577C493.841 188.51 493.997 176.221 493.796 163.938C493.611 152.643 494.251 148.692 509.728 150.368C553.199 155.074 590.937 174.686 630.18 190.501C647.644 200.072 645.395 203.621 645.395 206.506C640.432 210.296 635.717 214.477 630.455 217.791C619.996 224.38 609.754 231.757 598.431 236.387C589.864 239.891 579.07 242.546 570.469 240.507C545.308 234.543 520.749 226.04 493.84 217.893C493.84 215.174 493.84 209.766 493.84 202.577Z" fill="#FEFEFE"/>
<path d="M533.223 294.185C527.213 299.108 522.608 305.642 516.873 306.859C505.97 309.174 498.482 305.342 499.366 291.228C500.503 273.082 499.643 254.811 499.643 232.135C521.388 238.908 541.388 244.425 560.774 251.602C566.732 253.807 569.104 257.956 560.042 264.094C549.584 271.177 542.607 283.402 533.223 294.185Z" fill="#FEFEFE"/>
</g>
</g>
</g>
</g>
</g>
<defs>
<clipPath id="clip0_167_2">
<rect width="1000" height="1000" fill="white"/>
</clipPath>
<clipPath id="clip1_167_2">
<rect width="1000" height="1000" fill="white"/>
</clipPath>
<clipPath id="clip2_167_2">
<rect width="615" height="700" fill="white" transform="translate(192.5 150)"/>
</clipPath>
<clipPath id="clip3_167_2">
<rect width="615" height="700" fill="white" transform="translate(192.5 150)"/>
</clipPath>
<clipPath id="clip4_167_2">
<rect width="1000" height="1000" fill="white"/>
</clipPath>
<clipPath id="clip5_167_2">
<rect width="615" height="700" fill="white" transform="translate(192.5 150)"/>
</clipPath>
<clipPath id="clip6_167_2">
<rect width="615" height="700" fill="white" transform="translate(192.5 150)"/>
</clipPath>
</defs>
</svg>
