<svg width="95" height="34" viewBox="0 0 95 34" fill="none" xmlns="http://www.w3.org/2000/svg">
<path d="M2.5 31C2.5 27.9894 14.6218 4.73688 14.6218 4.73688C14.8698 4.33107 15.1882 3.97786 15.6303 4.41992L27.7611 27.7307M27.7611 27.7307C27.7611 27.7307 26.6156 25.9492 27.1272 26.607C27.3959 26.9524 27.5882 27.3416 27.7611 27.7307ZM27.7611 27.7307C28.1924 28.7011 28.3608 27.6193 28.6256 27.0776C28.6256 27.0776 41.3208 6.627 43.3593 4.99621C43.6638 4.74703 43.8965 4.04534 44.3582 4.04534C45.6447 4.04534 54.1743 22.5826 54.1743 22.5826C54.1743 22.5826 54.7527 24.0519 54.8658 23.543C55.1579 22.2287 77.8597 3.00802 77.8597 3.00802C78.5104 3.00802 78.8611 2.89047 79.1659 3.55549C79.7105 4.7437 91.6906 25.4832 91.6906 25.4832" stroke="white" stroke-width="5" stroke-linecap="round"/>
</svg>
