<svg xmlns="http://www.w3.org/2000/svg" xmlns:xlink="http://www.w3.org/1999/xlink" width="1080" zoomAndPan="magnify" viewBox="0 0 810 809.999993" height="1080" preserveAspectRatio="xMidYMid meet" version="1.0"><defs><clipPath id="3e1aaa9ec9"><path d="M 405 0 C 181.324219 0 0 181.324219 0 405 C 0 628.675781 181.324219 810 405 810 C 628.675781 810 810 628.675781 810 405 C 810 181.324219 628.675781 0 405 0 Z M 405 0 " clip-rule="nonzero"/></clipPath><clipPath id="55f1730a46"><path d="M 229 176.074219 L 581 176.074219 L 581 633.574219 L 229 633.574219 Z M 229 176.074219 " clip-rule="nonzero"/></clipPath></defs><g clip-path="url(#3e1aaa9ec9)"><rect x="-81" width="972" fill="#fa4a3e" y="-80.999999" height="971.999992" fill-opacity="1"/></g><path fill="#ffffff" d="M 501.136719 256.304688 C 489.34375 245.792969 482.9375 241.433594 470.886719 236.050781 C 458.582031 230.667969 451.148438 229.128906 439.355469 228.871094 C 432.175781 228.871094 431.40625 229.128906 430.894531 229.898438 C 430.382812 230.410156 430.125 231.179688 430.125 231.179688 C 430.125 232.460938 432.175781 233.230469 437.558594 234.257812 C 449.609375 236.5625 459.605469 240.664062 470.628906 247.84375 C 477.808594 252.714844 482.421875 257.074219 490.882812 266.558594 C 498.832031 275.273438 503.1875 279.378906 506.265625 281.171875 C 509.597656 282.707031 513.1875 281.683594 515.238281 278.351562 C 515.75 277.328125 516.261719 276.042969 516.261719 275.273438 C 516.261719 271.683594 511.390625 265.789062 501.136719 256.304688 Z M 501.136719 256.304688 " fill-opacity="1" fill-rule="nonzero"/><g clip-path="url(#55f1730a46)"><path fill="#ffffff" d="M 573.945312 272.199219 C 566.511719 250.40625 552.921875 229.128906 536.773438 214.773438 C 517.289062 197.339844 490.371094 184.777344 460.375 179.136719 C 445.507812 176.574219 439.867188 176.0625 419.101562 176.0625 C 397.824219 176.0625 391.414062 176.574219 375.519531 179.648438 C 341.421875 186.316406 308.351562 201.441406 281.949219 222.460938 C 276.308594 226.820312 261.953125 240.921875 257.59375 246.5625 C 243.238281 264.507812 233.75 285.527344 230.164062 306.808594 C 228.878906 315.78125 228.878906 335.265625 230.417969 344.234375 C 234.519531 367.308594 242.46875 386.28125 257.082031 408.324219 C 267.335938 424.476562 279.128906 438.832031 299.894531 460.625 C 312.199219 473.699219 327.324219 490.617188 340.398438 504.976562 C 346.292969 511.640625 353.730469 520.871094 360.394531 529.585938 C 365.777344 536.765625 366.804688 538.304688 368.34375 542.917969 L 370.394531 548.300781 L 369.367188 550.609375 C 367.828125 553.425781 367.058594 558.042969 367.058594 562.398438 C 367.058594 566.246094 368.085938 577.269531 369.367188 584.449219 C 371.164062 595.984375 374.496094 599.574219 385.519531 602.648438 L 389.875 603.929688 L 392.953125 613.414062 C 396.542969 624.695312 396.796875 625.210938 399.105469 627.773438 C 401.925781 630.335938 405.515625 631.617188 412.179688 632.132812 C 415 632.132812 418.078125 632.644531 418.847656 632.898438 C 420.382812 633.925781 427.816406 633.925781 432.6875 633.15625 C 436.789062 632.644531 439.097656 631.617188 440.894531 629.566406 C 441.660156 628.542969 443.199219 627.773438 446.019531 627.003906 C 450.890625 625.722656 453.199219 624.695312 455.503906 622.390625 C 458.582031 619.570312 459.605469 614.699219 461.144531 598.804688 C 461.402344 594.957031 461.402344 594.703125 462.941406 594.1875 C 470.886719 591.625 474.476562 581.628906 473.195312 567.269531 C 472.167969 558.8125 469.347656 546.507812 467.554688 544.199219 C 467.042969 543.6875 470.375 530.609375 472.167969 525.484375 C 475.5 517.023438 483.960938 501.898438 493.191406 488.3125 C 495.753906 484.722656 501.90625 476.261719 507.035156 469.597656 C 533.695312 434.730469 544.464844 420.117188 551.898438 407.558594 C 563.945312 387.816406 571.382812 372.179688 575.484375 358.335938 C 579.074219 345.515625 580.355469 337.3125 580.609375 320.90625 C 581.121094 300.398438 579.585938 289.375 573.945312 272.199219 Z M 443.710938 611.109375 C 443.199219 611.621094 433.96875 613.160156 424.996094 614.441406 C 419.871094 615.210938 414.488281 615.722656 413.207031 615.722656 L 410.640625 615.722656 L 407.820312 610.085938 L 405 604.699219 L 406.285156 604.445312 C 407.050781 604.1875 409.617188 603.933594 412.179688 603.675781 C 418.332031 603.164062 430.125 601.625 437.816406 600.085938 C 441.660156 599.316406 444.738281 599.0625 444.738281 599.0625 C 445.25 599.316406 443.96875 610.597656 443.710938 611.109375 Z M 456.019531 574.960938 L 455.503906 578.296875 L 452.941406 579.0625 C 442.945312 581.882812 425.511719 585.21875 412.179688 586.5 C 406.796875 587.011719 400.386719 587.523438 398.078125 587.523438 C 393.976562 587.523438 387.570312 586.5 386.800781 585.730469 C 386.542969 585.21875 383.722656 570.605469 383.210938 565.734375 L 382.699219 563.171875 L 386.800781 564.195312 C 395.003906 566.757812 408.847656 567.273438 421.921875 565.734375 C 430.382812 564.707031 432.6875 564.449219 442.941406 562.144531 C 447.300781 561.375 451.660156 560.347656 452.429688 560.09375 C 453.96875 559.835938 454.222656 559.835938 454.734375 561.886719 C 455.761719 565.734375 456.273438 571.628906 456.019531 574.960938 Z M 426.28125 527.789062 C 426.792969 538.304688 427.050781 547.273438 426.792969 547.53125 C 426.535156 547.53125 423.972656 548.042969 421.152344 548.558594 C 418.332031 548.8125 414.742188 549.070312 413.207031 549.070312 L 410.128906 549.070312 L 409.617188 538.816406 C 408.589844 518.5625 404.488281 492.414062 399.363281 471.136719 C 390.902344 436.011719 375.519531 399.355469 357.832031 371.410156 C 355.78125 368.332031 354.242188 365.769531 354.242188 365.769531 C 354.5 365.769531 357.0625 366.28125 360.394531 367.050781 C 365.523438 368.078125 367.574219 368.332031 377.570312 368.332031 C 389.621094 368.332031 392.695312 368.078125 402.179688 365.257812 C 412.691406 362.4375 424.996094 356.796875 433.714844 350.902344 C 436.535156 349.105469 438.839844 347.824219 438.585938 348.335938 C 438.070312 349.875 434.226562 368.332031 432.945312 375.769531 C 430.382812 390.636719 428.332031 411.917969 426.023438 441.910156 C 424.742188 460.367188 424.742188 502.15625 426.28125 527.789062 Z M 544.71875 380.128906 C 534.464844 400.378906 524.46875 415.503906 499.085938 448.832031 C 482.421875 470.878906 476.78125 479.082031 467.554688 493.953125 C 461.402344 504.207031 457.300781 512.410156 454.734375 518.5625 C 452.429688 524.460938 448.839844 537.019531 448.328125 540.609375 L 448.070312 542.917969 L 443.710938 543.941406 C 439.097656 545.222656 438.839844 544.96875 438.839844 542.148438 C 438.839844 541.378906 438.585938 537.789062 438.328125 534.457031 C 434.484375 490.875 434.996094 454.984375 439.609375 407.300781 C 441.660156 385.765625 444.480469 368.589844 449.609375 348.335938 C 452.429688 336.800781 453.453125 333.722656 456.785156 328.855469 C 460.375 323.214844 461.914062 319.882812 463.707031 315.265625 C 465.503906 309.371094 465.246094 305.78125 462.171875 303.730469 C 460.375 302.449219 457.042969 302.707031 455.25 304.242188 C 453.453125 305.78125 450.378906 311.679688 447.300781 319.882812 C 444.992188 325.777344 444.738281 326.035156 440.890625 329.878906 C 429.613281 341.160156 411.152344 350.386719 392.695312 354.234375 C 388.339844 355.257812 385.519531 355.515625 378.597656 355.515625 C 365.777344 355.515625 356.550781 353.464844 344.757812 348.59375 C 341.167969 347.054688 340.65625 346.796875 337.320312 342.183594 C 318.605469 317.316406 306.558594 307.578125 299.378906 311.679688 C 294.253906 315.007812 295.277344 323.214844 302.199219 332.1875 C 307.839844 339.621094 318.09375 348.082031 328.605469 354.488281 L 333.476562 357.308594 L 338.347656 364.746094 C 363.46875 400.890625 381.417969 445.5 391.414062 495.746094 C 394.492188 512.152344 399.875 544.964844 399.875 548.558594 C 399.875 549.066406 395.773438 549.324219 393.976562 548.8125 C 393.207031 548.558594 391.671875 548.300781 390.132812 548.042969 C 387.570312 547.53125 387.3125 547.273438 385.519531 544.710938 C 384.492188 542.914062 382.441406 539.328125 380.902344 536.507812 C 365.777344 509.332031 353.472656 493.4375 306.8125 440.882812 C 271.949219 401.660156 255.796875 373.460938 249.902344 341.671875 C 248.363281 332.1875 248.363281 317.832031 249.902344 308.34375 C 253.234375 290.910156 261.949219 272.453125 274 257.84375 C 279.128906 251.691406 288.871094 242.460938 295.277344 237.332031 C 321.941406 216.054688 359.371094 201.183594 396.027344 197.339844 C 411.667969 195.800781 433.203125 196.316406 449.609375 198.621094 C 483.191406 203.492188 512.929688 218.105469 531.132812 238.613281 C 536.261719 244.253906 543.949219 255.792969 547.285156 262.96875 C 556 280.144531 559.589844 294.757812 560.101562 314.242188 C 560.871094 339.621094 557.023438 356.027344 544.71875 380.128906 Z M 544.71875 380.128906 " fill-opacity="1" fill-rule="nonzero"/></g><path fill="#ffffff" d="M 520.109375 293.476562 C 517.800781 295.78125 517.800781 297.0625 520.621094 304.757812 C 524.210938 315.523438 527.285156 322.445312 529.335938 323.726562 C 531.132812 324.75 534.976562 324.75 536.773438 323.214844 C 538.566406 321.933594 539.847656 319.625 539.847656 317.0625 C 539.847656 313.472656 534.207031 301.9375 529.59375 296.554688 C 526.261719 292.195312 522.417969 291.167969 520.109375 293.476562 Z M 520.109375 293.476562 " fill-opacity="1" fill-rule="nonzero"/></svg>