<svg xmlns="http://www.w3.org/2000/svg" xmlns:xlink="http://www.w3.org/1999/xlink" width="1080" zoomAndPan="magnify" viewBox="0 0 810 809.999993" height="1080" preserveAspectRatio="xMidYMid meet" version="1.0"><path fill="#5d6d7e" d="M 484.355469 530.859375 L 504.261719 550.773438 L 527.53125 573.921875 L 536.5 582.953125 L 582.933594 536.488281 L 530.871094 484.34375 Z M 484.355469 530.859375 " fill-opacity="1" fill-rule="nonzero"/><path fill="#ff8e31" d="M 630.28125 536.179688 L 790.515625 696.40625 C 802.566406 708.425781 810.046875 725.113281 810 743.460938 C 810 761.84375 802.566406 778.515625 790.515625 790.585938 C 778.496094 802.589844 761.847656 809.996094 743.464844 809.996094 C 725.089844 809.996094 708.460938 802.589844 696.410156 790.542969 L 536.183594 630.300781 Z M 630.28125 536.179688 " fill-opacity="1" fill-rule="nonzero"/><path fill="#fece59" d="M 608.167969 558.324219 L 621.1875 545.28125 L 781.4375 705.53125 C 791.554688 715.65625 797.121094 729.121094 797.113281 743.453125 C 797.113281 757.828125 791.53125 771.320312 781.4375 781.460938 C 779.597656 783.230469 777.234375 784.121094 774.910156 784.121094 C 772.535156 784.121094 770.1875 783.230469 768.359375 781.433594 C 764.789062 777.820312 764.789062 772.027344 768.359375 768.4375 C 775.039062 761.78125 778.695312 752.863281 778.695312 743.429688 C 778.71875 734.039062 775.042969 725.183594 768.40625 718.558594 Z M 608.167969 558.324219 " fill-opacity="1" fill-rule="nonzero"/><path fill="#34495e" d="M 536.175781 630.300781 L 630.28125 536.171875 L 623.261719 529.136719 C 619.027344 524.882812 613.234375 522.300781 606.796875 522.300781 C 600.316406 522.300781 594.507812 524.871094 590.3125 529.105469 L 529.117188 590.332031 C 524.914062 594.503906 522.289062 600.3125 522.289062 606.800781 C 522.289062 613.191406 524.910156 619.070312 529.117188 623.21875 Z M 536.175781 630.300781 " fill-opacity="1" fill-rule="nonzero"/><path fill="#34495e" d="M 0 300.84375 C 0 134.71875 134.699219 0.00390625 300.855469 0.00390625 C 467.027344 0.00390625 601.714844 134.726562 601.714844 300.84375 C 601.714844 467.011719 467.007812 601.703125 300.855469 601.746094 C 134.699219 601.703125 0 467.007812 0 300.84375 Z M 0 300.84375 " fill-opacity="1" fill-rule="nonzero"/><path fill="#5d6d7e" d="M 300.855469 569.148438 C 448.988281 569.148438 569.136719 449.039062 569.136719 300.839844 C 569.136719 152.722656 448.992188 32.578125 300.855469 32.578125 C 152.695312 32.582031 32.5625 152.71875 32.5625 300.84375 C 32.5625 449.039062 152.695312 569.148438 300.855469 569.148438 Z M 300.855469 569.148438 " fill-opacity="1" fill-rule="nonzero"/><path fill="#cee2f2" d="M 300.855469 547.671875 C 437.140625 547.671875 547.660156 437.199219 547.660156 300.84375 C 547.660156 164.589844 437.136719 54.042969 300.855469 54.042969 C 164.570312 54.042969 54.035156 164.589844 54.035156 300.84375 C 54.035156 437.1875 164.542969 547.671875 300.855469 547.671875 Z M 300.855469 547.671875 " fill-opacity="1" fill-rule="nonzero"/><path fill="#ffffff" d="M 307.347656 94.5625 C 303.140625 88.328125 295.917969 84.421875 287.96875 84.875 C 253.898438 86.945312 221.699219 96.539062 192.277344 113.621094 C 181.917969 119.679688 178.367188 133.035156 184.402344 143.441406 C 190.433594 153.722656 203.804688 157.378906 214.132812 151.261719 C 237.601562 137.722656 263.289062 130.035156 290.523438 128.371094 C 302.488281 127.75 311.6875 117.429688 310.945312 105.472656 C 310.808594 101.332031 309.421875 97.605469 307.347656 94.5625 Z M 307.347656 94.5625 " fill-opacity="1" fill-rule="nonzero"/><path fill="#ffffff" d="M 167.601562 166.117188 C 166.441406 164.382812 164.933594 162.769531 163.277344 161.398438 C 153.933594 153.753906 140.230469 155.242188 132.679688 164.574219 C 110.445312 191.871094 95.144531 224.621094 88.386719 259.476562 C 80.398438 300.871094 84.574219 343.253906 100.449219 382.089844 C 105.074219 393.285156 117.804688 398.539062 128.910156 393.964844 C 140.050781 389.453125 145.355469 376.765625 140.792969 365.574219 C 128.136719 334.601562 124.851562 300.78125 131.28125 267.742188 C 136.539062 239.917969 148.761719 213.796875 166.496094 192.011719 C 172.664062 184.429688 172.824219 173.785156 167.601562 166.117188 Z M 167.601562 166.117188 " fill-opacity="1" fill-rule="nonzero"/></svg>