<svg width="103" height="44" viewBox="0 0 103 44" fill="none" xmlns="http://www.w3.org/2000/svg">
<path d="M21.2112 41.9399C20.835 40.3347 19.6073 39.4174 18.526 38.4125C16.2602 36.3067 13.1792 36.2717 10.4711 35.284C8.74549 34.6547 7.06976 33.8816 5.78916 32.5027C4.64683 31.2727 3.353 30.1138 2.50751 28.696C1.54749 27.0862 0.782476 25.2784 0.346739 23.4576C-0.247323 20.9751 -0.0425211 18.4155 0.690582 15.9435C1.55606 13.0251 3.18513 10.5851 5.44388 8.55689C7.3395 6.85471 9.46639 5.61167 12.0142 5.15492C12.5736 5.05463 13.1036 4.79039 13.7985 4.54913C13.7985 6.19944 13.8386 7.59785 13.7657 8.99035C13.7506 9.27947 13.3697 9.65287 13.066 9.80482C11.9926 10.3419 10.8161 10.6942 9.79377 11.3082C7.1109 12.9196 5.63414 15.4835 5.02576 18.4272C4.69047 20.0496 4.81852 21.793 5.39181 23.4811C5.93029 25.0668 6.58807 26.5267 7.70939 27.7713C9.53626 29.7991 11.8643 30.8057 14.5031 31.3441C16.7222 31.7969 18.7923 32.5946 20.6779 34.0145C22.9406 35.7183 24.7193 37.7255 25.9042 40.2632C26.1088 40.7015 26.0111 41.281 26.1273 41.8676C24.5727 41.9399 22.9439 41.9399 21.2112 41.9399Z" fill="#FEFEFE"/>
<path d="M27.9739 31.301C30.0729 28.9834 31.4493 26.4146 31.7504 23.3188C31.8258 22.5439 32.0766 21.7872 32.1735 21.013C32.4359 18.9176 31.788 16.9128 31.2245 14.974C30.7394 13.3047 29.9452 12.3312 29 10.5C30.343 10.1466 31.3339 9.2682 32.6155 8.97144C32.8007 8.92857 33.1674 9.09837 33.2494 9.26723C34.378 11.5901 35.7199 13.8378 35.948 16.4976C36.0931 18.1893 36.407 19.8865 36.3482 21.5708C36.2751 23.663 35.8399 25.7023 35.0657 27.7078C34.1941 29.9656 32.9547 31.9501 31.4932 33.8224C30.9186 34.5586 30.1892 35.1774 29.5004 35.8175C29.3849 35.9249 29.0415 35.9613 28.9316 35.8723C28.2202 35.2958 27.536 34.6846 26.8589 34.0672C26.0009 33.2846 26.0327 32.9411 26.9776 32.2075C27.3161 31.9446 27.6372 31.6592 27.9739 31.301Z" fill="#FEFEFE"/>
<path d="M10.3963 17.7647C11.4945 15.7542 13.0064 14.5184 15.309 14.4769C16.6151 14.4534 17.8118 14.5652 19.0393 15.2991C20.7274 16.3085 21.4113 17.7582 21.769 19.5184C21.8121 19.7306 21.8466 20.1445 21.8466 20.1631C21.8466 20.1631 21.7027 21.001 21.0312 21H14.1123V22H21.5C21.8218 23.9389 20.4283 24.4812 19.2933 25.4267C17.2828 27.1014 13.1244 26.8371 11.1981 24.2747C10.3462 23.1414 9.93366 21.9229 9.67986 20.6964C9.49888 19.8218 10.0876 18.788 10.3963 17.7647Z" fill="#FEFEFE"/>
<path d="M30.2614 15.3033C30.5893 16.3339 31.0307 17.288 31.1071 18.2705C31.3467 21.3518 31.1681 24.3974 29.7093 27.2297C28.8073 28.981 27.4228 30.3487 26.0863 31.7466C25.9277 31.9125 25.3486 31.9002 25.1272 31.7423C24.3121 31.1609 23.6278 30.3787 22.7753 29.8727C21.9819 29.4019 22.0467 29.1703 22.7033 28.6682C25.5587 26.4848 26.9309 23.5575 26.8393 19.9802C26.7959 18.2819 26.2959 16.6709 25.3105 15.2745C24.8564 14.6309 25.0727 14.2324 25.5182 13.7931C26.1493 13.1706 26.835 12.5939 27.3991 11.9158C27.9642 11.2365 28.408 11.7309 28.6171 12.0819C29.2188 13.0919 29.6871 14.1814 30.2614 15.3033Z" fill="#FEFEFE"/>
<path d="M24.0733 6.32956C25.116 5.69575 26.0374 4.99184 27.07 4.54452C28.2274 4.04313 28.5 4 30.6909 3.38242C32.2299 2.75503 33.1091 3.63357 33.9454 4.62901C34.683 5.50692 35.3555 6.44167 36.0181 7.3786C36.1643 7.58529 36.148 7.90691 36.2392 8.32583C35.3881 8.18035 35.5 8 33.9639 7.9686C31.9445 8.20837 29.9483 8.33328 28.0676 9.48798C25.9645 10.7792 24.4728 12.413 23.4747 14.6056C23.3704 14.8347 22.9995 15.1365 22.8089 15.101C21.4569 14.8493 20.1184 14.5237 18.7798 14.204C18.6559 14.1744 18.5616 14.0212 18.5034 13.9697C19.651 10.9187 21.3322 8.283 24.0733 6.32956Z" fill="#FEFEFE"/>
<path d="M17.785 3.15014C17.785 2.30732 17.7944 1.57102 17.7823 0.835072C17.7712 0.158382 17.8096 -0.0783594 18.7369 0.0220313C21.3414 0.303995 23.6024 1.47902 25.9536 2.42657C27 3 26.8653 3.21265 26.8653 3.38555C26.5679 3.61257 26.2854 3.86308 25.9702 4.06166C25.3435 4.45642 24.7298 4.89841 24.0515 5.17583C23.5381 5.38576 22.8914 5.54485 22.3761 5.42269C20.8686 5.06532 19.3972 4.55591 17.7849 4.06773C17.7849 3.90486 17.7849 3.58084 17.785 3.15014Z" fill="#FEFEFE"/>
<path d="M20.1446 8.63873C19.7845 8.93372 19.5086 9.32518 19.165 9.39812C18.5117 9.53682 18.0631 9.30721 18.1161 8.46156C18.1842 7.37436 18.1326 6.27966 18.1326 4.92108C19.4355 5.32688 20.6338 5.65743 21.7953 6.08739C22.1522 6.21952 22.2944 6.46812 21.7514 6.83584C21.1248 7.26026 20.7068 7.99269 20.1446 8.63873Z" fill="#FEFEFE"/>
<path d="M44.788 17.832C45.0867 18.4667 45.4227 19.0267 45.796 19.512C46.188 19.9973 46.6267 20.38 47.112 20.66C47.616 20.94 48.1853 21.08 48.82 21.08C49.2307 21.08 49.6133 21.0147 49.968 20.884C50.3227 20.7347 50.612 20.5387 50.836 20.296C51.0787 20.0347 51.2187 19.736 51.256 19.4C51.3307 18.9707 51.2373 18.6253 50.976 18.364C50.7147 18.084 50.332 17.832 49.828 17.608C49.324 17.3653 48.736 17.1133 48.064 16.852C47.5413 16.628 47.0093 16.3387 46.468 15.984C45.9267 15.6107 45.432 15.172 44.984 14.668C44.5547 14.164 44.2187 13.5853 43.976 12.932C43.7333 12.26 43.6587 11.504 43.752 10.664C43.9013 9.45067 44.3587 8.41467 45.124 7.556C45.908 6.67867 46.8693 6.016 48.008 5.568C49.1653 5.10133 50.3787 4.87733 51.648 4.896C52.88 4.896 53.9347 5.10133 54.812 5.512C55.6893 5.904 56.4267 6.42667 57.024 7.08C57.64 7.73333 58.116 8.452 58.452 9.236L54.196 11.448C53.972 11.0373 53.72 10.6827 53.44 10.384C53.16 10.0667 52.8427 9.824 52.488 9.656C52.1333 9.488 51.7227 9.404 51.256 9.404C50.92 9.404 50.5933 9.46 50.276 9.572C49.9773 9.66533 49.7253 9.80533 49.52 9.992C49.3333 10.1787 49.2213 10.412 49.184 10.692C49.128 11.028 49.2027 11.3267 49.408 11.588C49.6133 11.8307 49.9027 12.0547 50.276 12.26C50.668 12.4653 51.088 12.652 51.536 12.82C52.0027 12.9693 52.4413 13.128 52.852 13.296C53.7667 13.632 54.5413 14.0893 55.176 14.668C55.8107 15.228 56.2773 15.9 56.576 16.684C56.8933 17.4493 56.996 18.3173 56.884 19.288C56.716 20.6693 56.212 21.836 55.372 22.788C54.5507 23.74 53.5333 24.468 52.32 24.972C51.1067 25.476 49.8373 25.728 48.512 25.728C47.28 25.7093 46.1413 25.476 45.096 25.028C44.0693 24.5987 43.192 23.992 42.464 23.208C41.736 22.4053 41.1947 21.5 40.84 20.492L44.788 17.832ZM67.9414 25L68.6974 20.604H78.3854L77.6014 25H67.9414ZM70.5454 9.796L71.3014 5.4H80.9894L80.2054 9.796H70.5454ZM69.3134 16.936L70.0694 12.68H79.1974L78.4414 16.936H69.3134ZM67.7174 5.4H72.8414L69.4814 25H64.3574L67.7174 5.4ZM92.8784 10.02L93.6904 5.4H102.286L101.474 10.02H92.8784ZM91.5904 17.608L92.3464 13.352H100.662L99.9064 17.636L91.5904 17.608ZM90.1064 5.4H95.2304L91.8704 25H86.7464L90.1064 5.4Z" fill="#FEFEFE"/>
<path d="M40.69 29H42.38V33.58C42.38 33.9333 42.4733 34.22 42.66 34.44C42.8467 34.66 43.1267 34.77 43.5 34.77C43.88 34.77 44.1633 34.66 44.35 34.44C44.5367 34.22 44.63 33.9333 44.63 33.58V29H46.32V33.7C46.32 34.14 46.2467 34.5233 46.1 34.85C45.96 35.1767 45.76 35.4467 45.5 35.66C45.2467 35.8667 44.9467 36.0233 44.6 36.13C44.26 36.2367 43.8933 36.29 43.5 36.29C43.1067 36.29 42.74 36.2367 42.4 36.13C42.06 36.0233 41.76 35.8667 41.5 35.66C41.2467 35.4467 41.0467 35.1767 40.9 34.85C40.76 34.5233 40.69 34.14 40.69 33.7V29ZM56.5817 29H58.2117V36.35L53.3717 32.06V36H51.7517V28.65L56.5817 32.94V29ZM64.4612 33.54C64.6012 33.7933 64.7578 34.0133 64.9312 34.2C65.1112 34.3867 65.3045 34.53 65.5112 34.63C65.7245 34.73 65.9478 34.78 66.1812 34.78C66.4278 34.78 66.6312 34.72 66.7912 34.6C66.9512 34.4733 67.0312 34.3033 67.0312 34.09C67.0312 33.91 66.9845 33.7667 66.8912 33.66C66.7978 33.5467 66.6478 33.44 66.4412 33.34C66.2345 33.24 65.9612 33.1267 65.6212 33C65.4545 32.94 65.2612 32.8567 65.0412 32.75C64.8278 32.6433 64.6245 32.5067 64.4312 32.34C64.2378 32.1667 64.0778 31.96 63.9512 31.72C63.8245 31.4733 63.7612 31.1767 63.7612 30.83C63.7612 30.4167 63.8678 30.06 64.0812 29.76C64.3012 29.46 64.5945 29.2333 64.9612 29.08C65.3345 28.92 65.7478 28.84 66.2012 28.84C66.6678 28.84 67.0712 28.9167 67.4112 29.07C67.7578 29.2233 68.0445 29.4167 68.2712 29.65C68.4978 29.8833 68.6712 30.12 68.7912 30.36L67.5012 31.08C67.4012 30.9133 67.2845 30.77 67.1512 30.65C67.0245 30.5233 66.8812 30.4267 66.7212 30.36C66.5678 30.2867 66.4012 30.25 66.2212 30.25C65.9812 30.25 65.7978 30.3033 65.6712 30.41C65.5445 30.51 65.4812 30.6367 65.4812 30.79C65.4812 30.95 65.5412 31.09 65.6612 31.21C65.7878 31.33 65.9645 31.44 66.1912 31.54C66.4245 31.64 66.7045 31.7467 67.0312 31.86C67.2778 31.9533 67.5078 32.0633 67.7212 32.19C67.9345 32.31 68.1212 32.4567 68.2812 32.63C68.4478 32.8033 68.5778 33.0033 68.6712 33.23C68.7645 33.4567 68.8112 33.7167 68.8112 34.01C68.8112 34.3633 68.7378 34.68 68.5912 34.96C68.4512 35.2333 68.2578 35.4633 68.0112 35.65C67.7712 35.8367 67.4945 35.9767 67.1812 36.07C66.8745 36.17 66.5578 36.22 66.2312 36.22C65.7778 36.22 65.3545 36.14 64.9612 35.98C64.5745 35.8133 64.2378 35.59 63.9512 35.31C63.6645 35.03 63.4412 34.7233 63.2812 34.39L64.4612 33.54ZM75.3312 32.5C75.3312 32.9133 75.4112 33.28 75.5712 33.6C75.7378 33.9133 75.9678 34.16 76.2612 34.34C76.5612 34.52 76.9112 34.61 77.3112 34.61C77.7045 34.61 78.0478 34.52 78.3412 34.34C78.6412 34.16 78.8712 33.9133 79.0312 33.6C79.1978 33.28 79.2812 32.9133 79.2812 32.5C79.2812 32.0867 79.2012 31.7233 79.0412 31.41C78.8812 31.09 78.6545 30.84 78.3612 30.66C78.0678 30.48 77.7178 30.39 77.3112 30.39C76.9112 30.39 76.5612 30.48 76.2612 30.66C75.9678 30.84 75.7378 31.09 75.5712 31.41C75.4112 31.7233 75.3312 32.0867 75.3312 32.5ZM73.5412 32.5C73.5412 31.96 73.6345 31.4667 73.8212 31.02C74.0145 30.5733 74.2812 30.1867 74.6212 29.86C74.9612 29.5333 75.3612 29.2833 75.8212 29.11C76.2812 28.93 76.7778 28.84 77.3112 28.84C77.8512 28.84 78.3478 28.93 78.8012 29.11C79.2612 29.2833 79.6612 29.5333 80.0012 29.86C80.3412 30.1867 80.6045 30.5733 80.7912 31.02C80.9778 31.4667 81.0712 31.96 81.0712 32.5C81.0712 33.04 80.9778 33.5367 80.7912 33.99C80.6112 34.4433 80.3512 34.8367 80.0112 35.17C79.6778 35.5033 79.2812 35.7633 78.8212 35.95C78.3612 36.13 77.8578 36.22 77.3112 36.22C76.7578 36.22 76.2512 36.13 75.7912 35.95C75.3312 35.7633 74.9312 35.5033 74.5912 35.17C74.2578 34.8367 73.9978 34.4433 73.8112 33.99C73.6312 33.5367 73.5412 33.04 73.5412 32.5ZM87.2741 36V34.61H90.8041V36H87.2741ZM87.2741 30.39V29H90.8041V30.39H87.2741ZM87.2741 33V31.64H90.6041V33H87.2741ZM86.1541 29H87.7741V36H86.1541V29ZM96.1795 29H97.9195V36H96.1795V29ZM98.6795 36H97.2995V34.5H98.6195C98.8861 34.5 99.1428 34.4667 99.3895 34.4C99.6428 34.3333 99.8628 34.2233 100.049 34.07C100.243 33.9167 100.396 33.7133 100.509 33.46C100.623 33.2 100.679 32.88 100.679 32.5C100.679 32.12 100.623 31.8033 100.509 31.55C100.396 31.29 100.243 31.0833 100.049 30.93C99.8628 30.7767 99.6428 30.6667 99.3895 30.6C99.1428 30.5333 98.8861 30.5 98.6195 30.5H97.2995V29H98.6795C99.4461 29 100.109 29.1433 100.669 29.43C101.229 29.7167 101.663 30.12 101.969 30.64C102.276 31.16 102.429 31.78 102.429 32.5C102.429 33.2133 102.276 33.8333 101.969 34.36C101.663 34.88 101.229 35.2833 100.669 35.57C100.109 35.8567 99.4461 36 98.6795 36Z" fill="#FEFEFE"/>
</svg>
