<svg width="50" height="43" viewBox="0 0 50 43" fill="none" xmlns="http://www.w3.org/2000/svg">
<path d="M22.1179 2.63262C22.0099 0.810036 24.7302 0.368095 25.132 2.15093C25.1359 2.16548 25.1386 2.18003 25.1428 2.19588C25.7782 5.29986 26.4133 8.40384 27.0487 11.5081C29.5808 7.88135 32.113 4.25463 34.6451 0.629207C35.1872 -0.146593 36.4233 -0.175692 37.1134 0.381086C37.8901 1.00801 37.9035 2.05064 37.3643 2.8215C34.772 6.53397 32.1797 10.2464 29.5877 13.9589L47.0162 7.18584C49.12 6.36769 50.3493 9.6182 48.2444 10.4364C44.8793 11.7442 41.5128 13.0521 38.1477 14.36C35.5183 15.3814 32.8874 16.4042 30.2577 17.4258C37.0987 21.224 43.5325 25.7427 49.3975 30.8872C51.0835 32.3679 48.8703 35.059 47.1791 33.5768C44.6738 31.378 42.0707 29.2917 39.3717 27.3317C36.0242 24.9022 32.5308 22.6798 28.9215 20.6618C30.315 27.4704 31.7099 34.2804 33.1034 41.0888C33.2918 42.0127 32.4067 42.9036 31.5338 42.9906C30.5274 43.0922 29.7997 42.3572 29.6116 41.4398C28.1595 34.3464 26.7084 27.254 25.256 20.1604C21.7923 25.1199 18.3284 30.0795 14.8647 35.0403C14.3239 35.8151 13.0865 35.8442 12.3964 35.2872C11.6197 34.6618 11.6076 33.6179 12.1455 32.847C14.8245 29.0119 17.5022 25.1779 20.1799 21.3428L2.31994 28.2834C0.216402 29.1015 -1.01314 25.851 1.09198 25.0329C4.45712 23.725 7.822 22.4171 11.1884 21.1092C14.7123 19.7392 18.2351 18.3708 21.7603 17.0008C17.2392 14.901 12.5728 13.1075 7.79808 11.6414C6.88782 11.3628 6.55015 10.1355 6.89964 9.35423C7.31352 8.42774 8.30945 8.18871 9.21446 8.46593C12.4632 9.46361 15.6667 10.6065 18.809 11.9012C20.5736 12.6297 22.3182 13.4083 24.0428 14.2281C23.5022 11.5871 22.9617 8.94633 22.4209 6.30689C22.341 5.91613 22.2887 5.52018 22.2648 5.12163L22.1179 2.63262Z" fill="white"/>
</svg>
