<svg xmlns="http://www.w3.org/2000/svg" xmlns:xlink="http://www.w3.org/1999/xlink" width="1080" zoomAndPan="magnify" viewBox="0 0 810 809.999993" height="1080" preserveAspectRatio="xMidYMid meet" version="1.0"><defs><clipPath id="492c466f23"><path d="M 405 0 C 181.324219 0 0 181.324219 0 405 C 0 628.675781 181.324219 810 405 810 C 628.675781 810 810 628.675781 810 405 C 810 181.324219 628.675781 0 405 0 Z M 405 0 " clip-rule="nonzero"/></clipPath><clipPath id="a7c209a835"><path d="M 170.585938 170.585938 L 639.335938 170.585938 L 639.335938 639.335938 L 170.585938 639.335938 Z M 170.585938 170.585938 " clip-rule="nonzero"/></clipPath></defs><g clip-path="url(#492c466f23)"><rect x="-81" width="972" fill="#f6f6f8" y="-80.999999" height="971.999992" fill-opacity="1"/></g><g clip-path="url(#a7c209a835)"><path fill="#fa4a3e" d="M 404.996094 170.585938 L 334.101562 334.101562 L 170.585938 404.996094 L 334.101562 475.890625 L 404.996094 639.40625 L 475.890625 475.890625 L 639.40625 404.996094 L 475.890625 334.101562 L 404.996094 170.585938 " fill-opacity="1" fill-rule="nonzero"/></g></svg>