<svg width="59" height="59" viewBox="0 0 59 59" fill="none" xmlns="http://www.w3.org/2000/svg">
<g clip-path="url(#clip0_109_237)">
<mask id="mask0_109_237" style="mask-type:luminance" maskUnits="userSpaceOnUse" x="0" y="8" width="59" height="41">
<path d="M0.609497 8.07578L58.0412 8.07578V48.8948H0.609497L0.609497 8.07578Z" fill="white"/>
</mask>
<g mask="url(#mask0_109_237)">
<path d="M3.71674 9.50439C3.71674 9.50439 0.61084 10.0697 0.61084 17.982C0.61084 25.8947 0.787821 45.4604 2.16379 46.8073C5.9862 50.5475 21.8295 47.9437 37.3897 48.3647C52.9502 48.7851 58.0426 48.2201 58.0426 43.6986C58.0426 39.1769 56.6281 16.004 56.6281 12.33C56.6281 8.65632 55.7795 8.09131 44.7457 8.09131C33.7119 8.09131 3.71674 9.50439 3.71674 9.50439Z" fill="#FE493F"/>
</g>
<path d="M18.6915 19.4206C18.6915 19.4206 19.3282 35.7408 19.7525 37.0124C20.1771 38.2839 20.3893 39.7676 25.9059 38.072C31.4228 36.3765 40.1223 30.0181 40.1223 30.0181C40.1223 30.0181 42.8806 28.1104 40.1223 26.627C37.3637 25.1433 21.2376 18.3609 21.2376 18.3609C21.2376 18.3609 18.6042 17.296 18.6912 19.4206H18.6915Z" fill="white"/>
</g>
<defs>
<clipPath id="clip0_109_237">
<rect width="57.4317" height="57.4317" fill="white" transform="translate(0.609497 0.609589)"/>
</clipPath>
</defs>
</svg>
