<svg width="1079" height="78" viewBox="0 0 1079 78" fill="none" xmlns="http://www.w3.org/2000/svg">
<mask id="mask0_53_11" style="mask-type:luminance" maskUnits="userSpaceOnUse" x="0" y="0" width="1079" height="78">
<path d="M0 0H1078.67V78H0V0Z" fill="white"/>
</mask>
<g mask="url(#mask0_53_11)">
<path fill-rule="evenodd" clip-rule="evenodd" d="M1075.84 75.6258C1079.92 72.6945 1078.85 67.4526 1073.48 63.9082C1062.31 56.352 1019.56 47.7152 964.568 42.0097C916.448 37.0744 900.339 36.9211 772.521 41.2395C705.5 43.3968 650.078 44.9373 649.646 44.6307C649.219 44.3203 662.104 42.4733 678.432 40.6226C739.224 33.5263 820.427 19.1878 832.453 13.6356C838.688 10.7043 839.328 6.38592 834.172 3.30136C829.234 0.216808 790.135 -0.243071 716.24 1.76096C470.063 8.54698 359.646 11.3212 270.714 12.7083C116.474 15.176 0.0416665 19.8047 0.0416665 23.5024C0.0416665 31.8326 447.719 26.744 761.568 15.0227L780.901 14.4058L769.083 16.5631C734.068 23.1958 607.542 36.7641 524.625 42.7799C477.365 46.1711 471.135 46.945 467.911 49.7193C463.833 53.2674 464.693 56.8119 470.276 58.8159C474.359 60.36 755.979 58.199 835.677 56.0417C892.818 54.3442 926.115 55.4247 963.495 59.7431C995.932 63.4446 1033.53 69.4567 1050.49 73.6218C1068.32 77.9401 1072.19 78.2467 1075.84 75.6258Z" fill="#4C75F2"/>
</g>
</svg>
