<svg width="128" height="44" viewBox="0 0 128 44" fill="none" xmlns="http://www.w3.org/2000/svg">
<g clip-path="url(#clip0)">
<path d="M93.6969 8.00835V2.7535C92.7858 2.75263 91.8747 2.75263 90.9637 2.75436V8.02821H87.8184V10.4869H96.8884V8.00835H93.6969Z" fill="#151345"/>
<path d="M93.697 2.75355C94.5697 2.75398 95.4423 2.75484 96.315 2.75441C96.5061 2.75441 96.6973 2.73801 96.8825 2.72981V0.282349H87.7849C87.7849 0.956469 87.8139 1.5706 87.7754 2.18171C87.747 2.63055 87.9028 2.76952 88.4034 2.76563C89.257 2.75873 90.1102 2.75571 90.9639 2.75441C91.8749 2.75269 92.786 2.75269 93.697 2.75355Z" fill="#353578"/>
<path d="M120.43 24.2701C120.886 23.5463 121.344 22.8234 121.802 22.101C121.18 21.0941 119.754 18.9268 119.309 18.2462C119.233 18.1296 119.102 17.9605 118.992 17.9583C117.98 17.9359 116.968 17.9454 115.866 17.9454C116.977 19.6436 119.061 22.823 120.301 24.7176V24.7168C120.294 24.5687 120.348 24.4 120.43 24.2701Z" fill="#151345"/>
<path d="M126.535 17.9337C125.873 17.9311 125.27 17.9303 124.668 17.9505C124.522 17.9553 124.336 18.1227 124.249 18.2583C123.429 19.5366 122.614 20.8184 121.802 22.101C121.344 22.8235 120.886 23.5464 120.43 24.2701C120.348 24.4 120.294 24.5688 120.301 24.7168V24.7177C120.316 25.0366 120.409 25.353 120.416 25.6715C120.434 26.4997 120.422 27.3278 120.422 28.1604H123.159C123.159 27.2325 123.132 26.3443 123.173 25.4587C123.189 25.116 123.285 24.7405 123.472 24.4466C124.664 22.5671 125.897 20.7092 127.1 18.8357L127.105 18.8284C127.355 18.4318 127.036 17.9354 126.535 17.9337Z" fill="#353578"/>
<path d="M35.7132 25.4C35.4689 25.9226 35.2259 26.4461 34.9834 26.9696H39.1541C38.9323 26.5121 38.6686 25.9667 38.3959 25.4H35.7132Z" fill="black"/>
<path d="M38.4577 19.1021C38.4845 19.3265 38.4569 19.5518 38.3637 19.7503C37.9239 20.6881 37.4828 21.6255 37.0426 22.5628C37.4025 23.3311 37.9135 24.3983 38.396 25.4C38.6688 25.9667 38.9325 26.5122 39.1543 26.9697C39.3338 27.3404 39.4858 27.6537 39.5928 27.8738C39.6567 28.0042 39.8556 28.1612 39.9972 28.1656C40.8845 28.1923 41.7735 28.1789 42.7545 28.1789C41.7239 25.9719 39.6968 21.7351 38.4577 19.1021Z" fill="#FF4546"/>
<path d="M37.0426 22.5628C37.4828 21.6254 37.9234 20.688 38.3636 19.7502C38.4568 19.5517 38.4845 19.3264 38.4577 19.102C38.3994 18.607 38.0775 18.115 37.6122 17.9169C36.8954 17.6122 36.16 17.9139 35.7975 18.6786C35.2075 19.9233 34.627 21.1718 34.0453 22.4195C33.1623 24.3137 32.2818 26.2083 31.3647 28.1797C32.2745 28.1797 33.0889 28.1556 33.9007 28.1897C34.312 28.2069 34.476 28.0645 34.6292 27.7331C34.7466 27.4784 34.8657 27.2242 34.9835 26.9696C35.2261 26.4461 35.469 25.9226 35.7133 25.4C36.1548 24.4535 36.5985 23.5084 37.0426 22.5628ZM90.3862 28.2013C89.9715 28.2013 89.6167 28.203 89.262 28.2009C88.2529 28.1944 87.7036 27.7322 87.6971 26.8013C87.6794 24.3171 87.6807 21.8334 87.6958 19.3493C87.7014 18.4093 88.2214 17.9549 89.2365 17.935C89.6081 17.9277 89.9801 17.9337 90.3862 17.9337V28.2013Z" fill="#3B3585"/>
<path d="M73.2329 27.0749C73.2183 24.3918 73.2178 21.7087 73.2342 19.0256C73.2381 18.3933 73.7038 17.982 74.3939 17.9475C74.6368 17.9354 74.8807 17.9346 75.1293 17.9363C74.8777 17.9341 74.6312 17.9354 74.3857 17.9475C73.6956 17.982 73.2295 18.3933 73.2256 19.0256C73.2096 21.7087 73.2101 24.3918 73.2243 27.0749C73.2278 27.7011 73.7487 28.1638 74.4288 28.1953C74.6688 28.2061 74.8725 28.2074 75.0826 28.2057C74.8647 28.2065 74.6506 28.2052 74.4374 28.1953C73.7569 28.1638 73.2364 27.7011 73.2329 27.0749ZM82.6619 20.1067C81.406 18.4512 79.8018 17.9354 77.433 17.9354C77.433 17.9354 76.0261 17.9462 75.9108 17.9432V20.373L77.2478 20.3531C77.7894 20.3324 78.5749 20.42 79.0751 20.6159C79.5943 20.8197 80.1195 21.1809 80.4332 21.603C80.747 22.0246 80.9645 22.6167 80.9274 23.1161C80.8859 23.6745 80.6175 24.2809 80.2589 24.7444C79.5658 25.6399 78.4787 25.6783 77.3324 25.7073H75.9108V28.1983L77.3324 28.1888C79.798 28.1888 81.7133 27.5686 82.9307 25.6326C84.1011 23.7712 84.0032 21.8744 82.6619 20.1067Z" fill="#151345"/>
<path d="M75.911 20.373V17.9436V17.9432C75.6422 17.9432 75.3832 17.938 75.1295 17.9363C74.8809 17.9346 74.637 17.9359 74.394 17.9475C73.7044 17.9821 73.2383 18.3933 73.2344 19.0256C73.218 21.7087 73.2189 24.3918 73.2331 27.0749C73.2366 27.7011 73.757 28.1642 74.4376 28.1953C74.6508 28.2052 74.8649 28.2065 75.0828 28.2056C75.3496 28.2043 75.6228 28.1996 75.911 28.1996V28.1983V25.7072V20.373ZM52.0258 20.4295C52.3283 20.5214 52.6822 20.663 53.068 20.8809C53.3119 21.0126 53.4301 21.1019 53.4301 21.1019L55.4193 19.5633C55.4193 19.5633 53.9653 17.7451 50.9814 17.7451C49.555 17.7451 47.5896 18.3437 46.3678 19.8361C49.0401 19.6453 50.8912 20.0338 52.0258 20.4295Z" fill="#353578"/>
<path d="M50.9814 25.8704C48.3147 25.8704 48.026 23.713 47.9988 23.0664C48.026 22.4195 48.3147 20.2625 50.9814 20.2625C50.9814 20.2625 51.3897 20.2361 52.0259 20.4295C50.8912 20.0337 49.0402 19.6453 46.3679 19.8361C45.7002 20.6509 45.2544 21.7324 45.2398 23.1295L45.2389 23.1299C45.2389 23.1415 45.2393 23.1528 45.2393 23.1648C45.2393 23.1765 45.2389 23.1877 45.2389 23.1998H45.2398C45.2812 27.1518 48.7757 28.3878 50.9814 28.3878C53.2002 28.3878 55.4193 26.5696 55.4193 26.5696L53.4298 25.031C52.0004 25.9317 50.9344 25.8626 50.9814 25.8704ZM62.7544 25.4C62.5106 25.9226 62.2676 26.4461 62.025 26.9697H66.2385C66.0184 26.5152 65.7543 25.9693 65.4802 25.4H62.7544ZM65.5204 19.0566C65.5467 19.2811 65.5191 19.5063 65.4259 19.7049C64.9861 20.6427 64.5455 21.5801 64.1048 22.5175C64.4708 23.2973 64.9917 24.3854 65.4802 25.4C65.7543 25.9693 66.0184 26.5152 66.2385 26.9697C66.4086 27.3205 66.5527 27.6175 66.6554 27.8285C66.7189 27.9593 66.9183 28.1159 67.0594 28.1202C67.9471 28.147 68.8362 28.1341 69.8172 28.1341C68.7865 25.9265 66.7594 21.6897 65.5204 19.0566Z" fill="#151345"/>
<path fill-rule="evenodd" clip-rule="evenodd" d="M62.7543 25.4C62.5105 25.9227 62.2675 26.4462 62.025 26.9697C61.9141 27.2092 61.8023 27.4483 61.6918 27.6878C61.5386 28.0193 61.3742 28.1617 60.9633 28.1444C60.1515 28.1103 59.3367 28.1345 58.4269 28.1345C59.3445 26.163 60.2249 24.2684 61.1079 22.3742C61.6896 21.1265 62.2697 19.878 62.8596 18.6333C63.2222 17.8686 63.958 17.5669 64.6748 17.8716C65.1401 18.0697 65.462 18.5617 65.5203 19.0567C65.5466 19.2811 65.519 19.5064 65.4258 19.7049C64.986 20.6428 64.5454 21.5801 64.1047 22.5175C63.6537 23.4778 63.2032 24.4385 62.7543 25.4ZM36.3281 39.0145C36.515 39.2592 36.6082 39.56 36.6082 39.9174C36.6082 40.4232 36.4118 40.812 36.0187 41.0839C35.6255 41.3562 35.0528 41.4922 34.2997 41.4922H31.3149V35.7203H34.1349C34.8383 35.7203 35.3782 35.8554 35.755 36.1247C36.1313 36.394 36.3199 36.7595 36.3199 37.2213C36.3199 37.5014 36.2522 37.7517 36.1179 37.9714C35.9829 38.1915 35.7947 38.3646 35.553 38.491C35.8827 38.5955 36.1412 38.7698 36.3281 39.0145ZM32.6425 36.7263V38.0871H33.9696C34.2997 38.0871 34.5496 38.0292 34.7201 37.9136C34.8905 37.7983 34.976 37.6279 34.976 37.4026C34.976 37.1773 34.8905 37.0081 34.7201 36.8955C34.5496 36.7828 34.2997 36.7263 33.9696 36.7263H32.6425ZM34.9963 40.3131C35.175 40.1979 35.2643 40.0192 35.2643 39.7771C35.2643 39.2989 34.91 39.0598 34.2005 39.0598H32.6425V40.4862H34.2005C34.5522 40.4862 34.8176 40.4284 34.9963 40.3131ZM42.3469 37.056L40.3435 41.7645C40.1402 42.2755 39.8886 42.6354 39.5891 42.8443C39.2892 43.0532 38.9279 43.1576 38.5046 43.1576C38.2741 43.1576 38.0458 43.1218 37.8205 43.0506C37.5948 42.979 37.4109 42.8801 37.2681 42.7537L37.7381 41.8383C37.8369 41.9264 37.9508 41.9954 38.0799 42.0446C38.2094 42.0942 38.3371 42.1188 38.4636 42.1188C38.6392 42.1188 38.7821 42.0761 38.8921 41.9911C39.0022 41.9061 39.101 41.7645 39.189 41.5664L39.2054 41.5254L37.2845 37.056H38.612L39.8571 40.0658L41.1104 37.056H42.3469Z" fill="#353578"/>
<path fill-rule="evenodd" clip-rule="evenodd" d="M49.8004 41.4922L48.6874 39.8842H47.4587V41.4922H46.1229V35.7203H48.6213C49.1327 35.7203 49.5764 35.8058 49.9532 35.9762C50.3295 36.1467 50.6195 36.3884 50.8228 36.7017C51.0261 37.015 51.1279 37.3862 51.1279 37.8147C51.1279 38.2437 51.0248 38.6132 50.8189 38.9239C50.6126 39.2346 50.32 39.472 49.9407 39.6369L51.2354 41.4922H49.8004ZM49.4625 37.0686C49.2536 36.8955 48.9485 36.8087 48.5471 36.8087H47.4587V38.8208H48.5471C48.9485 38.8208 49.2536 38.7327 49.4625 38.5566C49.6713 38.381 49.7758 38.1337 49.7758 37.8147C49.7758 37.4906 49.6713 37.2416 49.4625 37.0686ZM56.9736 37.056V41.4922H55.7535V40.9644C55.5831 41.1569 55.3794 41.304 55.1433 41.4059C54.9068 41.5073 54.6513 41.5582 54.3764 41.5582C53.7938 41.5582 53.332 41.3908 52.991 41.0555C52.6505 40.7201 52.48 40.2225 52.48 39.5626V37.056H53.7661V39.3732C53.7661 40.0879 54.0661 40.4452 54.6651 40.4452C54.9728 40.4452 55.2201 40.3451 55.407 40.144C55.5939 39.9437 55.6875 39.6451 55.6875 39.2493V37.056H56.9736ZM61.954 37.4807C62.3221 37.8078 62.5064 38.3011 62.5064 38.961V41.4922H61.3023V40.9398C61.0606 41.3519 60.6101 41.5582 59.9502 41.5582C59.6092 41.5582 59.3141 41.5004 59.0637 41.3852C58.8139 41.2695 58.6227 41.1103 58.491 40.907C58.359 40.7037 58.2929 40.4728 58.2929 40.2143C58.2929 39.8022 58.4483 39.4776 58.7586 39.2411C59.0693 39.005 59.5488 38.8868 60.1975 38.8868H61.2199C61.2199 38.6063 61.1349 38.3909 60.9644 38.2394C60.7939 38.0884 60.5384 38.0128 60.1975 38.0128C59.9614 38.0128 59.7288 38.05 59.5009 38.1242C59.2726 38.1984 59.0788 38.2985 58.9196 38.425L58.4578 37.526C58.6995 37.356 58.9895 37.2239 59.3279 37.1303C59.6658 37.037 60.0132 36.9904 60.3705 36.9904C61.058 36.9904 61.5854 37.154 61.954 37.4807ZM60.8574 40.5397C61.0274 40.4383 61.1487 40.2885 61.2199 40.0904V39.6369H60.3377C59.8099 39.6369 59.5462 39.8104 59.5462 40.1565C59.5462 40.3213 59.611 40.4521 59.74 40.5483C59.8691 40.6442 60.0464 40.6925 60.2717 40.6925C60.4918 40.6925 60.6869 40.6416 60.8574 40.5397ZM68.1091 37.485C68.4471 37.8147 68.6162 38.3042 68.6162 38.9528V41.4922H67.3297V39.1505C67.3297 38.7987 67.2529 38.5363 67.0988 38.3633C66.9452 38.1898 66.7225 38.1035 66.4312 38.1035C66.1066 38.1035 65.8485 38.2036 65.6561 38.4043C65.4636 38.605 65.3673 38.9032 65.3673 39.2989V41.4922H64.0812V37.056H65.3095V37.5757C65.48 37.3888 65.6915 37.2446 65.9448 37.1428C66.1973 37.0414 66.4748 36.9904 66.7773 36.9904C67.3271 36.9904 67.7708 37.1553 68.1091 37.485ZM74.8163 37.056V40.7503C74.8163 41.5634 74.6048 42.1685 74.1814 42.5642C73.758 42.96 73.14 43.1577 72.3265 43.1577C71.8975 43.1577 71.4905 43.1054 71.106 43.0014C70.721 42.8966 70.4025 42.7455 70.1496 42.5474L70.6606 41.6243C70.8475 41.7779 71.084 41.9005 71.3697 41.9911C71.6554 42.0817 71.9415 42.1271 72.2272 42.1271C72.6726 42.1271 73.0011 42.0269 73.2125 41.8262C73.424 41.6256 73.5302 41.3222 73.5302 40.9152V40.7253C73.1948 41.0939 72.7274 41.2777 72.1284 41.2777C71.7214 41.2777 71.3494 41.1884 71.0111 41.0097C70.6731 40.8315 70.4051 40.5799 70.2075 40.2553C70.0094 39.9312 69.9105 39.5574 69.9105 39.1341C69.9105 38.7111 70.0094 38.3374 70.2075 38.0128C70.4051 37.6883 70.6731 37.4371 71.0111 37.2584C71.3494 37.0798 71.7214 36.9904 72.1284 36.9904C72.7715 36.9904 73.2609 37.2019 73.5962 37.6253V37.056H74.8163ZM73.2207 39.9217C73.4382 39.721 73.5466 39.4586 73.5466 39.1341C73.5466 38.81 73.4382 38.5471 73.2207 38.3469C73.0036 38.1462 72.7248 38.0456 72.3839 38.0456C72.043 38.0456 71.7629 38.1462 71.5432 38.3469C71.3231 38.5471 71.213 38.81 71.213 39.1341C71.213 39.4586 71.3231 39.721 71.5432 39.9217C71.7629 40.122 72.043 40.2225 72.3839 40.2225C72.7248 40.2225 73.0036 40.122 73.2207 39.9217ZM81.0003 37.056V40.7503C81.0003 41.5634 80.7888 42.1685 80.3655 42.5642C79.9421 42.96 79.3236 43.1577 78.5106 43.1577C78.0816 43.1577 77.6746 43.1054 77.2901 43.0014C76.9051 42.8966 76.5866 42.7455 76.3337 42.5474L76.8447 41.6243C77.0315 41.7779 77.268 41.9005 77.5538 41.9911C77.8395 42.0817 78.1256 42.1271 78.4113 42.1271C78.8567 42.1271 79.1851 42.0269 79.3966 41.8262C79.6081 41.6256 79.7142 41.3222 79.7142 40.9152V40.7253C79.3789 41.0939 78.9115 41.2777 78.3125 41.2777C77.9055 41.2777 77.5335 41.1884 77.1951 41.0097C76.8572 40.8315 76.5892 40.5799 76.3915 40.2553C76.1934 39.9312 76.0946 39.5574 76.0946 39.1341C76.0946 38.7111 76.1934 38.3374 76.3915 38.0128C76.5892 37.6883 76.8572 37.4371 77.1951 37.2584C77.5335 37.0798 77.9055 36.9904 78.3125 36.9904C78.9555 36.9904 79.4449 37.2019 79.7803 37.6253V37.056H81.0003ZM79.4048 39.9217C79.6223 39.721 79.7306 39.4586 79.7306 39.1341C79.7306 38.81 79.6223 38.5471 79.4048 38.3469C79.1877 38.1462 78.9089 38.0456 78.568 38.0456C78.227 38.0456 77.9469 38.1462 77.7272 38.3469C77.5071 38.5471 77.3971 38.81 77.3971 39.1341C77.3971 39.4586 77.5071 39.721 77.7272 39.9217C77.9469 40.122 78.227 40.2225 78.568 40.2225C78.9089 40.2225 79.1877 40.122 79.4048 39.9217ZM87.0769 37.056V41.4922H85.8568V40.9644C85.6864 41.1569 85.4831 41.304 85.2466 41.4059C85.0105 41.5073 84.7546 41.5582 84.4801 41.5582C83.8971 41.5582 83.4357 41.3908 83.0948 41.0555C82.7538 40.7201 82.5833 40.2225 82.5833 39.5626V37.056H83.8699V39.3732C83.8699 40.0879 84.1694 40.4452 84.7684 40.4452C85.0761 40.4452 85.3239 40.3451 85.5107 40.144C85.6976 39.9437 85.7908 39.6451 85.7908 39.2493V37.056H87.0769ZM90.536 37.1553C90.7971 37.0452 91.0979 36.9904 91.4388 36.9904V38.1777C91.296 38.1669 91.1998 38.1609 91.1506 38.1609C90.782 38.1609 90.4933 38.264 90.2844 38.4703C90.0755 38.6766 89.9715 38.9856 89.9715 39.3978V41.4922H88.685V37.056H89.9137V37.6417C90.0673 37.4272 90.2749 37.2649 90.536 37.1553ZM97.1197 37.056V41.4922H95.8996V40.9644C95.7292 41.1569 95.5259 41.304 95.2894 41.4059C95.0533 41.5073 94.7974 41.5582 94.5225 41.5582C93.9398 41.5582 93.4781 41.3908 93.1375 41.0555C92.7966 40.7201 92.6261 40.2225 92.6261 39.5626V37.056H93.9126V39.3732C93.9126 40.0879 94.2122 40.4452 94.8112 40.4452C95.1189 40.4452 95.3666 40.3451 95.5535 40.144C95.7404 39.9437 95.8336 39.6451 95.8336 39.2493V37.056H97.1197ZM73.8724 7.98767H82.9705V10.4351C82.7853 10.4433 82.5937 10.4593 82.4025 10.4597C79.7656 10.461 77.1282 10.4494 74.4913 10.4705C73.9907 10.4744 73.8754 10.3527 73.8629 9.88661C73.8754 9.22931 73.8724 8.66179 73.8724 7.98767Z" fill="#353578"/>
<path d="M108.147 4.37496C107.052 4.12249 105.87 3.98784 105.87 3.23085C105.87 2.84502 106.101 2.57658 106.43 2.41992H106.43C106.43 2.41992 103.788 2.41561 103.222 4.81646C103.759 5.54755 104.747 6.00848 106.128 6.39431C107.181 6.68001 108.448 6.89882 108.448 7.65624C108.448 8.17758 107.954 8.53104 107.159 8.53104C106.429 8.53104 105.827 8.05976 105.827 7.47109H102.756C102.756 9.28802 104.345 10.7692 107.159 10.7692C109.586 10.7692 111.519 9.28802 111.519 7.50475C111.519 5.92303 110.445 4.91314 108.147 4.37496Z" fill="#151345"/>
<path d="M106.43 2.4199H106.43C106.661 2.31028 106.94 2.25461 107.223 2.25461C108.104 2.25461 108.555 2.72632 108.555 3.29816H111.519C111.347 1.4303 109.994 0.000488281 107.137 0.000488281C104.71 0.000488281 102.756 1.48079 102.756 3.2645C102.756 3.8946 102.915 4.39954 103.222 4.81644C103.788 2.41559 106.43 2.4199 106.43 2.4199Z" fill="#353578"/>
<path d="M124.063 0.33667V4.30759H119.016V6.44431H124.063V10.4325H127.199V0.33667H124.063Z" fill="#151345"/>
<path d="M119.016 0.233052C118.542 0.233052 118.109 0.22701 117.675 0.234347C116.491 0.254199 115.885 0.707786 115.879 1.64647V1.67926C115.87 2.90839 115.865 4.13796 115.865 5.36752C115.865 6.57119 115.87 7.77485 115.879 8.97809C115.88 9.01477 115.88 9.05146 115.88 9.08814C115.888 10.0182 116.528 10.4795 117.705 10.486C118.119 10.4882 118.533 10.486 119.016 10.486V10.4325V0.33663V0.233052Z" fill="#353578"/>
<path d="M34.0663 8.04626H40.1368V10.4825H34.0663V8.04626ZM34.0663 4.11072H39.5106V6.53963H34.0663V4.11072Z" fill="#151345"/>
<path d="M34.0663 0.918457L31.3672 7.03777C31.3693 7.71966 31.3724 8.40112 31.3775 9.08258C31.384 10.0139 31.933 10.4757 32.9424 10.4822C33.2972 10.4843 33.6519 10.4826 34.0663 10.4826V0.918457Z" fill="#3B3585"/>
<path d="M32.9166 0.21628C31.9019 0.236133 31.3819 0.690581 31.3762 1.63055C31.3655 3.4328 31.3616 5.23548 31.3672 7.03774L34.0664 0.918452V0.214986C33.6603 0.214986 33.2886 0.208944 32.9166 0.21628Z" fill="#FF4546"/>
<path d="M39.9754 2.62346H34.0663V0.214844H39.9754V2.62346ZM45.5228 2.38351C45.5064 2.36667 45.4926 2.34682 45.4779 2.32826C45.2954 2.11593 45.1793 1.84533 45.1607 1.54841L45.1568 1.54409V10.5571H47.8464C47.8464 9.45011 47.8494 6.13864 47.8429 4.81241C47.0691 4.00321 46.2958 3.19357 45.5228 2.38351Z" fill="#151345"/>
<path d="M55.3848 0.874883V0.349225H52.6344V5.95927C51.489 4.73403 50.4675 3.60546 49.4019 2.51271C48.6536 1.74537 48.5694 1.5654 47.4706 0.580548C47.4025 0.504591 47.3265 0.436403 47.2428 0.377709C47.2415 0.376846 47.2402 0.37555 47.2389 0.374255C47.2285 0.365192 47.2117 0.354835 47.1914 0.344046C46.9864 0.214142 46.7443 0.138184 46.4836 0.138184C46.4042 0.138184 46.327 0.146384 46.2515 0.159762C46.2027 0.16451 46.1595 0.174005 46.1237 0.188678C45.5661 0.345772 45.157 0.856757 45.157 1.46442C45.157 1.79457 45.2783 2.09624 45.4781 2.32843C45.4927 2.34699 45.5066 2.36684 45.523 2.38367C48.0002 4.98046 50.4804 7.57466 52.9659 10.1645C53.4773 10.698 54.0565 10.868 54.5964 10.6427C55.2144 10.3851 55.3965 9.9125 55.3926 9.30916C55.3749 6.49788 55.3848 3.6866 55.3848 0.874883Z" fill="#353578"/>
<path d="M63.8307 4.28822V6.39906H66.6083C66.5432 7.3632 65.715 8.32691 64.0094 8.32691C62.3849 8.32691 61.1019 7.16338 61.1019 5.31883C61.1019 4.23298 61.571 3.29387 62.3729 2.76562C61.3565 3.20842 60.1356 4.06812 58.6876 5.57907C58.8115 8.4292 60.9651 10.6376 63.9606 10.6376C67.5017 10.6376 69.1909 8.17759 69.1909 5.23597V4.28822H63.8307Z" fill="#151345"/>
<path d="M62.3728 2.76554C62.4798 2.69476 62.5929 2.63175 62.7116 2.57651C62.7163 2.57392 62.7215 2.57176 62.7267 2.5696C62.8424 2.51609 62.9636 2.47077 63.0896 2.43322C63.0991 2.43063 63.1086 2.42805 63.1181 2.42546C63.1725 2.40992 63.2277 2.39568 63.2843 2.38316C63.2938 2.381 63.3033 2.37885 63.3132 2.37669C63.3766 2.36331 63.4409 2.35166 63.5065 2.34259C63.5173 2.34087 63.5281 2.34 63.5389 2.33828C63.5937 2.33137 63.6485 2.32576 63.7046 2.32102C63.7223 2.31972 63.74 2.31843 63.7577 2.31756C63.8242 2.31325 63.8919 2.31023 63.9606 2.31023C64.8863 2.31023 65.7149 2.6926 66.3808 3.3076L67.209 2.52644L68.0376 1.74529C67.7178 1.41298 67.3756 1.11778 67.0014 0.869193C66.8521 0.769931 66.6971 0.677573 66.5366 0.593848C66.376 0.50969 66.2099 0.433733 66.0368 0.366408C65.8642 0.299082 65.6851 0.240387 65.4991 0.190756C65.0334 0.066462 64.5242 0 63.9606 0C63.8652 0 63.7711 0.0025883 63.6774 0.00690406C63.6459 0.00819878 63.6149 0.0116524 63.5834 0.0133787C63.5221 0.0172629 63.4604 0.0207154 63.3999 0.0267575C63.3624 0.0302101 63.3257 0.0353885 63.2886 0.0397042C63.2351 0.0457463 63.1811 0.0517889 63.1281 0.0591257C63.0879 0.0651678 63.0491 0.0725042 63.0094 0.0789778C62.9602 0.0871778 62.9105 0.0949455 62.8618 0.104009C62.8208 0.112209 62.7811 0.121704 62.7405 0.130335C62.6943 0.140693 62.6477 0.150188 62.6015 0.161409C62.5605 0.171335 62.5204 0.182988 62.4798 0.193777C62.4358 0.205861 62.3914 0.217514 62.3478 0.230461C62.3068 0.242546 62.2662 0.256356 62.2256 0.269735C62.1838 0.283114 62.1419 0.29606 62.1009 0.310734C62.0595 0.325407 62.0193 0.341376 61.9784 0.356913C61.9391 0.372018 61.8994 0.386259 61.8605 0.402228C61.8195 0.419059 61.7794 0.437185 61.7388 0.45488C61.7017 0.47128 61.6642 0.48768 61.6275 0.504943C61.5865 0.523932 61.5464 0.544217 61.5062 0.564501C61.4713 0.582195 61.4359 0.599459 61.4013 0.617585C61.3608 0.639164 61.3211 0.662037 61.2814 0.684479C61.2486 0.703037 61.2153 0.721594 61.183 0.741015C61.1428 0.764752 61.1036 0.789783 61.0643 0.814814C61.0336 0.834235 61.0026 0.853657 60.9724 0.873941C60.9327 0.900267 60.8938 0.927456 60.855 0.955076C60.8265 0.97536 60.7976 0.995645 60.7695 1.01636C60.7307 1.04528 60.6923 1.07505 60.6543 1.10483C60.6275 1.12598 60.6008 1.1467 60.5749 1.16827C60.5365 1.19935 60.4989 1.23172 60.4614 1.26408C60.4368 1.28566 60.4126 1.30681 60.3884 1.32882C60.3509 1.36292 60.3142 1.39744 60.2775 1.4324C60.2551 1.45441 60.2327 1.47599 60.2106 1.498C60.174 1.53468 60.1381 1.5718 60.1023 1.60978C60.082 1.63136 60.0617 1.65293 60.0415 1.67538C60.0061 1.71465 59.9711 1.75479 59.9366 1.79492C59.918 1.81693 59.8995 1.83851 59.8818 1.86052C59.8468 1.90282 59.8132 1.94554 59.7799 1.9887C59.7631 2.01028 59.7467 2.03186 59.7307 2.05344C59.6971 2.09832 59.6647 2.14364 59.6328 2.18982C59.6181 2.21096 59.6034 2.23211 59.5892 2.25369C59.5572 2.30116 59.5257 2.3495 59.4951 2.39827C59.4822 2.41898 59.4696 2.4397 59.4571 2.46085C59.4265 2.51134 59.3967 2.56227 59.3678 2.61405C59.3566 2.63391 59.3458 2.65419 59.335 2.67404C59.3061 2.72756 59.2776 2.78151 59.2504 2.83632C59.2409 2.85574 59.2318 2.87516 59.2223 2.89415C59.1952 2.95068 59.1688 3.00765 59.1438 3.06505C59.1356 3.08361 59.1278 3.10174 59.1201 3.12029C59.095 3.17985 59.0704 3.23941 59.0471 3.30026C59.0407 3.31709 59.0346 3.33479 59.0281 3.35162C59.0048 3.4142 58.9828 3.47721 58.9617 3.54065C58.9565 3.55662 58.9518 3.57259 58.9466 3.58855C58.9259 3.65415 58.9056 3.72018 58.8874 3.78708C58.8831 3.80132 58.8797 3.81599 58.8758 3.83024C58.8572 3.89929 58.84 3.96834 58.824 4.03869C58.821 4.0512 58.8188 4.06372 58.8158 4.0758C58.7998 4.14831 58.7852 4.22124 58.7722 4.29461C58.7701 4.30497 58.7688 4.31576 58.767 4.32612C58.7537 4.40207 58.742 4.47846 58.7317 4.55572C58.7308 4.56348 58.7299 4.57125 58.7291 4.57902C58.7187 4.65929 58.7101 4.73957 58.7032 4.8207C58.7027 4.82545 58.7027 4.8302 58.7023 4.83495C58.6954 4.9191 58.6902 5.00412 58.6868 5.09001V5.09044L58.6876 5.5751V5.57769C58.6876 5.57812 58.6876 5.57855 58.6876 5.57898C60.1355 4.06803 61.3565 3.20833 62.3728 2.76554Z" fill="#353578"/>
<path d="M77.0294 7.98765H73.8724V0.33667H77.0294V7.98765ZM90.3863 25.7643H96.4564V28.2005H90.3863V25.7643ZM90.3863 21.8287H95.8306V24.2576H90.3863V21.8287ZM96.2954 20.3415H90.3863V17.9329H96.2954V20.3415ZM101.357 19.0252C101.357 19.0282 101.355 19.0304 101.355 19.0334V28.1854H104.044V22.3975C103.282 21.5896 102.519 20.783 101.767 19.9673C101.495 19.6721 101.363 19.3416 101.357 19.0252Z" fill="black"/>
<path d="M103.45 18.0529L103.51 18.1103C103.49 18.0904 103.47 18.0714 103.45 18.0529ZM112.919 18.9898C112.919 18.2954 112.356 17.7331 111.662 17.7331C111.268 17.7331 110.917 17.9143 110.687 18.1983C110.501 18.3563 110.334 18.538 110.166 18.7188C109.18 19.7766 108.185 20.8257 107.168 21.9051C106.1 20.7748 105.088 19.6669 104.025 18.6023L103.51 18.1103L103.45 18.0529L103.444 18.0473V18.0481C103.222 17.8522 102.931 17.7331 102.612 17.7331C102.605 17.7331 102.599 17.7339 102.593 17.7339C102.548 17.7313 102.516 17.7348 102.496 17.7387C101.885 17.7948 101.402 18.2876 101.36 18.9022C101.357 18.9303 101.356 18.9583 101.356 18.9864C101.356 18.9876 101.355 18.9885 101.355 18.9898C101.355 18.992 101.356 18.9946 101.356 18.9967C101.356 19.0062 101.357 19.0157 101.357 19.0252C101.363 19.3415 101.495 19.6717 101.767 19.9673C102.519 20.783 103.282 21.5896 104.044 22.3975C104.085 22.4415 104.127 22.486 104.169 22.53C105.158 23.58 106.15 24.6283 107.166 25.7047C108.168 24.646 109.127 23.6322 110.203 22.495V28.1616H112.919V27.5829C112.919 24.8424 112.92 22.1019 112.919 19.3614V18.9898Z" fill="#353578"/>
<path d="M0 12.7233C0 19.7123 5.66573 25.3784 12.6551 25.3784C14.9753 25.3784 17.1491 24.7531 19.0191 23.6634L22.1239 27.6593C23.164 28.9985 25.3102 28.2627 25.3102 26.567V12.7233C25.3102 5.73397 19.6445 0.0682373 12.6551 0.0682373C5.67264 0.0678058 0 5.74044 0 12.7233Z" fill="url(#paint0_linear)"/>
<path d="M17.2224 9.73164H7.90599C7.23532 9.73164 6.69153 9.18785 6.69153 8.51719C6.69153 7.84652 7.23532 7.30273 7.90599 7.30273H17.2224C17.8931 7.30273 18.4369 7.84652 18.4369 8.51719C18.4369 9.18785 17.8931 9.73164 17.2224 9.73164ZM17.2224 17.8789H7.90599C7.23532 17.8789 6.69153 17.3351 6.69153 16.6645C6.69153 15.9934 7.23532 15.4496 7.90599 15.4496H17.2224C17.8931 15.4496 18.4369 15.9934 18.4369 16.6645C18.4369 17.3351 17.8931 17.8789 17.2224 17.8789ZM13.1945 13.7587H7.90599C7.23532 13.7587 6.69153 13.2149 6.69153 12.5442C6.69153 11.8735 7.23532 11.3298 7.90599 11.3298H13.1945C13.8652 11.3298 14.409 11.8735 14.409 12.5442C14.409 13.2149 13.8652 13.7587 13.1945 13.7587Z" fill="white"/>
</g>
<defs>
<linearGradient id="paint0_linear" x1="1.13366" y1="34.9921" x2="26.0057" y2="-2.46313" gradientUnits="userSpaceOnUse">
<stop stop-color="#151342"/>
<stop offset="0.459" stop-color="#353587"/>
<stop offset="0.849" stop-color="#FF4546"/>
<stop offset="1" stop-color="#FF4546"/>
</linearGradient>
<clipPath id="clip0">
<rect width="127.199" height="43.1576" fill="white"/>
</clipPath>
</defs>
</svg>
